<svg width="157" height="66" viewBox="0 0 157 66" fill="none" xmlns="http://www.w3.org/2000/svg">
<g clip-path="url(#clip0_2002_2796)">
<path d="M75.0143 34.4197L69.4433 21.011C69.198 20.4209 68.6148 20.0353 67.9671 20.0353H67.3662V18.9307L71.1605 18.954L71.5342 20.0354L76.8234 33.067H76.0451L81.1288 20.756C81.2711 20.4118 81.0138 20.0354 80.6365 20.0354H79.0462L79.4887 18.9307H83.299L82.8692 20.0354L76.8697 34.4197H75.0143Z" fill="#231F20"/>
<path d="M84.6243 34.3069V33.2022H86.2119C86.505 33.2022 86.7434 32.9679 86.7434 32.6788V20.5588C86.7434 20.2697 86.505 20.0354 86.2119 20.0354H84.6706V18.9307H91.1294V20.0354H89.5875C89.2943 20.0354 89.056 20.2697 89.056 20.5588V32.6788C89.056 32.968 89.2943 33.2022 89.5875 33.2022H91.175V34.3069H84.6243Z" fill="#231F20"/>
<path d="M110.029 34.3069V33.2022H111.616C111.91 33.2022 112.147 32.9679 112.147 32.6788V20.5588C112.147 20.2697 111.91 20.0354 111.616 20.0354H110.075V18.9307H116.534V20.0354H114.992C114.699 20.0354 114.461 20.2697 114.461 20.5588V32.6788C114.461 32.968 114.699 33.2022 114.992 33.2022H116.579V34.3069H110.029Z" fill="#231F20"/>
<path d="M72.4347 39.5176H67.9004V40.6223H68.5497C69.4305 40.6223 70.1446 41.3253 70.1446 42.1925V53.7891H67.8545V54.8939H76.3502V53.7891H74.0292C73.1485 53.7891 72.4347 53.0862 72.4347 52.2189V47.6116H74.7929C76.4091 47.6116 76.4645 47.8981 76.4645 49.2239H77.5872V47.6116V46.4618V44.8622H76.4645C76.4645 46.0698 76.3593 46.4618 74.7929 46.4618H72.4347V40.69H78.3424C79.0141 40.69 79.472 40.8327 79.7167 41.1184C79.9762 41.3889 80.106 41.8774 80.106 42.5839V45.2893H81.3198V40.69V39.5176L72.4347 39.5176Z" fill="#231F20"/>
<path d="M91.2536 55.1419C89.1164 55.1419 87.3984 54.6008 86.3143 53.5186C85.2457 52.4364 84.7114 50.9033 84.7114 48.9193V42.1925C84.7114 41.3253 83.9976 40.6223 83.1162 40.6223H82.9128V39.5176H87.0241V49.2349C87.0241 50.6777 87.3907 51.8126 88.1236 52.6393C88.8718 53.451 90.0161 53.8568 91.558 53.8568C93.1 53.8568 94.2373 53.451 94.9701 52.6393C95.7028 51.8126 96.0696 50.6778 96.0696 49.2349V42.1925C96.0696 41.3253 95.3557 40.6223 94.4744 40.6223H93.6196V39.5176H97.735V48.9193C97.735 50.9033 97.193 52.4364 96.1089 53.5186C95.0247 54.6008 93.4063 55.1419 91.2536 55.1419Z" fill="#231F20"/>
<path d="M115.302 54.8939V53.7891H116.889C117.183 53.7891 117.42 53.5548 117.42 53.2657V41.1458C117.42 40.8566 117.183 40.6223 116.889 40.6223H115.348V39.5176H121.806V40.6223H120.265C119.971 40.6223 119.734 40.8567 119.734 41.1458V53.2657C119.734 53.5549 119.971 53.7891 120.265 53.7891H121.852V54.8939H115.302Z" fill="#231F20"/>
<path d="M131.057 55.1872C129.439 55.1872 128.019 54.8715 126.798 54.2402C125.576 53.6089 124.615 52.6996 123.912 51.5121C123.225 50.3248 122.882 48.8893 122.882 47.2059C122.882 45.5224 123.225 44.087 123.912 42.8996C124.615 41.7122 125.576 40.8029 126.798 40.1715C128.019 39.5402 129.439 39.2246 131.057 39.2246C132.675 39.2246 134.095 39.5402 135.316 40.1715C136.537 40.8029 137.492 41.7122 138.179 42.8996C138.881 44.087 139.232 45.5224 139.232 47.2059C139.232 48.8893 138.881 50.3248 138.179 51.5121C137.492 52.6995 136.537 53.6089 135.316 54.2402C134.095 54.8715 132.675 55.1872 131.057 55.1872ZM131.057 54.0148C132.202 54.0148 133.194 53.7441 134.034 53.203C134.873 52.6469 135.522 51.8653 135.981 50.8583C136.438 49.8362 136.667 48.6188 136.667 47.2059C136.667 45.793 136.438 44.583 135.981 43.576C135.522 42.5539 134.873 41.7724 134.034 41.2312C133.194 40.675 132.202 40.3971 131.057 40.3971C129.912 40.3971 128.912 40.675 128.057 41.2312C127.218 41.7724 126.568 42.5539 126.11 43.576C125.653 44.583 125.424 45.793 125.424 47.2059C125.424 48.6188 125.653 49.8362 126.11 50.8583C126.568 51.8653 127.218 52.6469 128.057 53.203C128.912 53.7442 129.912 54.0148 131.057 54.0148Z" fill="#231F20"/>
<path d="M150.872 39.5176V40.6223H151.705C152.585 40.6223 153.299 41.3253 153.299 42.1925V51.4444L143.796 39.5176H139.857V40.6223H140.506C141.387 40.6223 142.102 41.3253 142.102 42.1925V53.7891H139.812V54.8939H145.903V53.7891H145.002C144.12 53.7891 143.407 53.0862 143.407 52.2189V42.5613L153.276 54.8939H154.627V40.6223H156.995V39.5176H150.872Z" fill="#231F20"/>
<path d="M100.339 34.4197L94.7672 21.011C94.5224 20.4209 93.939 20.0353 93.291 20.0353H92.6902V18.9307L96.4844 18.954L96.8582 20.0354L102.148 33.067H101.37C103.064 28.962 104.792 24.8689 106.455 20.7509C106.593 20.4077 106.336 20.0354 105.961 20.0354C105.428 20.0354 104.887 20.0354 104.37 20.0354L104.813 18.9307H108.623L108.193 20.0354L102.194 34.4197H100.339Z" fill="#231F20"/>
<path d="M107.847 55.1873C106.778 55.1873 105.771 54.9919 104.824 54.6011C103.893 54.2103 103.091 53.6016 102.42 52.7749C102.295 52.6159 102.178 52.448 102.069 52.2712C101.969 52.1112 101.687 52.1774 101.687 52.3649V54.8943H100.428V49.5057H101.687C102.023 50.4827 102.481 51.3094 103.061 51.9858C103.656 52.6471 104.343 53.1432 105.122 53.4738C105.9 53.8045 106.732 53.9699 107.618 53.9699C108.702 53.9699 109.534 53.7295 110.114 53.2485C110.709 52.7675 111.007 52.0761 111.007 51.1742C111.007 50.558 110.854 50.0695 110.549 49.7088C110.244 49.333 109.824 49.0474 109.289 48.852C108.77 48.6415 108.198 48.4838 107.572 48.3786L105.74 48.0403C104.718 47.89 103.801 47.6421 102.992 47.2964C102.183 46.9507 101.542 46.4773 101.068 45.876C100.595 45.2598 100.359 44.4631 100.359 43.4861C100.359 42.5092 100.573 41.7126 101 41.0962C101.443 40.465 102.053 39.999 102.832 39.6984C103.61 39.3979 104.496 39.2476 105.488 39.2476C106.496 39.2476 107.435 39.428 108.305 39.7887C109.175 40.1494 109.923 40.7356 110.549 41.5473C110.655 41.682 110.756 41.824 110.85 41.9734C110.951 42.1326 111.236 42.0655 111.236 41.8778V39.5181H112.495V44.7037H111.236C110.794 43.2757 110.075 42.2085 109.083 41.5022C108.107 40.7807 107.007 40.4199 105.786 40.4199C104.718 40.4199 103.885 40.6454 103.29 41.0962C102.695 41.5472 102.397 42.2085 102.397 43.0803C102.397 43.6515 102.542 44.1174 102.832 44.4781C103.122 44.839 103.511 45.1245 104 45.3349C104.488 45.5303 105.053 45.6882 105.694 45.8083L107.503 46.1239C108.588 46.2742 109.549 46.5223 110.389 46.8679C111.228 47.2137 111.892 47.6871 112.381 48.2883C112.87 48.8896 113.114 49.6936 113.114 50.7007C113.114 51.6927 112.892 52.5269 112.45 53.2032C112.022 53.8646 111.411 54.3607 110.617 54.6913C109.839 55.022 108.916 55.1873 107.847 55.1873Z" fill="#231F20"/>
<path d="M132.818 22.4478C132.132 21.3055 131.17 20.4338 129.934 19.8325C128.697 19.2313 127.247 18.9307 125.583 18.9307H118.54V20.0354H119.899C120.192 20.0354 120.43 20.2697 120.43 20.5588V32.6788C120.43 32.968 120.192 33.2022 119.899 33.2022H118.494V34.3069H125.583C127.247 34.3069 128.697 34.0063 129.934 33.4051C131.17 32.8039 132.132 31.9321 132.818 30.7898C133.506 29.6324 133.849 28.2421 133.849 26.6188C133.849 24.9805 133.505 23.5902 132.818 22.4478ZM130.598 30.0683C130.109 31.0303 129.414 31.7818 128.514 32.3229C127.613 32.849 126.567 33.112 125.376 33.112H122.72V20.1031H125.376C126.567 20.1031 127.613 20.3736 128.514 20.9147C129.414 21.4408 130.109 22.1923 130.598 23.1693C131.101 24.1313 131.353 25.2811 131.353 26.6188C131.353 27.9415 131.101 29.0913 130.598 30.0683Z" fill="#231F20"/>
<path d="M67.1598 32.9985V32.9719C67.1598 32.3621 66.6485 31.8582 66.0294 31.8582C65.8949 31.8582 65.7603 31.8847 65.6392 31.9245C64.5089 32.2427 63.4593 32.3621 61.9926 32.2163C60.8623 31.9245 59.6243 31.487 58.5479 30.9036C58.5344 30.9036 57.9423 30.5721 57.7405 30.4529C55.6144 29.233 53.5825 28.0796 50.6356 27.8806C52.3311 26.6741 53.9862 25.0963 55.4933 23.0149C55.6278 22.8292 55.5875 22.5773 55.399 22.4447C55.2106 22.3121 54.9549 22.3651 54.8204 22.5375C53.8247 23.9164 52.775 25.0566 51.6718 26.0112C51.0931 26.2897 50.3934 26.1968 49.4245 26.0776C48.8458 26.0112 48.2 25.9184 47.4464 25.9052C48.8998 23.9694 49.6801 20.8404 50.2184 18.6792C50.3933 17.9765 50.5548 17.3534 50.6759 16.9954C51.12 16.5711 51.6447 16.2529 52.156 15.9347C52.2503 15.8949 52.331 15.8418 52.3982 15.7623C52.6271 15.5369 52.7077 15.2055 52.6136 14.9138C52.5732 14.7812 52.5058 14.6618 52.3982 14.5558C52.3982 14.5558 52.3982 14.5558 52.3848 14.5558C52.2772 14.4497 52.156 14.3834 52.0215 14.3437C51.7254 14.2509 51.389 14.3304 51.1603 14.5558C51.0796 14.6221 51.0257 14.7149 50.9854 14.7945C50.649 15.3381 50.2588 15.9347 49.7609 16.3987C49.2495 16.5313 48.4018 16.6639 47.406 16.823C46.0335 17.0352 44.1496 17.3401 41.9697 17.8307C41.2835 17.9765 40.678 18.2284 40.1128 18.5466C39.9109 15.1922 38.1617 12.2355 36.372 9.47774C35.3493 7.89995 34.69 6.01723 34.3267 4.62508C34.2324 3.4716 34.3536 2.64957 34.6361 1.5226C34.6765 1.40323 34.7034 1.27068 34.7034 1.13813C34.7034 0.528251 34.1921 0.0244141 33.5731 0.0244141C32.9541 0.0244141 32.4428 0.528251 32.4428 1.13813C32.4428 1.27068 32.4697 1.4033 32.51 1.5226C32.7926 2.64957 32.9137 3.4716 32.8196 4.62508C32.4563 6.03048 31.8103 7.89995 30.7877 9.47774C28.998 12.2355 27.2487 15.2054 27.0469 18.5466C26.4952 18.2284 25.8761 17.9765 25.1899 17.8307C23.01 17.3401 21.1261 17.0484 19.7536 16.823C18.7579 16.6639 17.9101 16.5313 17.3988 16.3987C16.9009 15.9347 16.5106 15.3381 16.1743 14.7945C16.1339 14.7016 16.0801 14.6221 15.9993 14.5558C15.7706 14.3304 15.4341 14.2509 15.1382 14.3437C15.0036 14.3834 14.8824 14.4497 14.7748 14.5558C14.6672 14.6618 14.5999 14.7812 14.5595 14.9138C14.4654 15.2055 14.5461 15.5369 14.7748 15.7623C14.8421 15.8286 14.9363 15.8949 15.017 15.9347C15.5284 16.2396 16.0666 16.5711 16.4972 16.9954C16.6318 17.3534 16.7798 17.9765 16.9547 18.6792C17.493 20.8404 18.2734 23.9694 19.7267 25.9052C18.9866 25.9184 18.3272 26.0112 17.7486 26.0776C16.7798 26.1969 16.0801 26.2897 15.5015 26.0112C14.398 25.0566 13.335 23.9032 12.3527 22.5375C12.2181 22.3519 11.9625 22.3121 11.7741 22.4447C11.5857 22.5773 11.5453 22.8291 11.6799 23.0149C13.1735 25.0963 14.8286 26.6742 16.5376 27.8806C13.5907 28.0796 11.5588 29.233 9.43273 30.4529C9.23085 30.5722 8.63882 30.9036 8.62536 30.9036C7.54887 31.4737 6.31089 31.9113 5.18061 32.2163C3.7139 32.3489 2.66427 32.2294 1.53399 31.9245C1.41289 31.8847 1.27833 31.8582 1.14377 31.8582C0.524817 31.8582 0.0134277 32.3621 0.0134277 32.9719V33.025C0.0134277 33.6349 0.524747 34.1388 1.14377 34.1388C1.27833 34.1388 1.41289 34.1122 1.53399 34.0725C2.66434 33.7543 3.7139 33.6349 5.18061 33.7807C6.31096 34.0725 7.54894 34.51 8.62536 35.0934C8.63882 35.0934 9.23085 35.4249 9.43273 35.5442C11.5588 36.7639 13.5907 37.9175 16.5376 38.1164C14.8421 39.3229 13.187 40.9007 11.6799 42.9821C11.5453 43.1678 11.5857 43.4197 11.7741 43.5523C11.9625 43.6849 12.2181 43.6318 12.3527 43.4595C13.335 42.0806 14.398 40.9403 15.5015 39.9858C16.0801 39.7073 16.7798 39.8002 17.7486 39.9194C18.3272 39.9858 18.9731 40.0786 19.7267 40.0918C18.2734 42.0275 17.493 45.1565 16.9547 47.3177C16.7798 48.0205 16.6183 48.6436 16.4972 49.0016C16.0532 49.4259 15.5284 49.7441 15.017 50.0623C14.9228 50.102 14.8421 50.1551 14.7748 50.2346C14.5461 50.4601 14.4654 50.7915 14.5595 51.0831C14.5999 51.2157 14.6672 51.3351 14.7748 51.4412C14.8824 51.5473 15.0036 51.6136 15.1382 51.6533C15.4341 51.7461 15.7706 51.6665 15.9993 51.4412C16.0666 51.3749 16.1339 51.2821 16.1743 51.2025C16.5106 50.6589 16.9009 50.0623 17.3988 49.5983C17.9101 49.4657 18.7579 49.3331 19.7536 49.174C21.1261 48.9618 23.01 48.6569 25.1899 48.1662C25.8761 48.0205 26.4817 47.7685 27.0469 47.4503C27.2487 50.8048 28.998 53.7615 30.7877 56.5192C31.8103 58.097 32.4696 59.9796 32.8196 61.3718C32.9137 62.5253 32.7926 63.3473 32.51 64.4743C32.4697 64.5936 32.4428 64.7262 32.4428 64.8587C32.4428 65.4686 32.9541 65.9724 33.5731 65.9724C34.1921 65.9724 34.7034 65.4686 34.7034 64.8587C34.7034 64.7262 34.6765 64.5935 34.6361 64.4743C34.3536 63.3473 34.2324 62.5253 34.3267 61.3718C34.69 59.9664 35.3358 58.097 36.372 56.5192C38.1616 53.7615 39.9109 50.7915 40.1128 47.4503C40.6645 47.7685 41.2835 48.0205 41.9697 48.1662C44.1496 48.6568 46.0335 48.9485 47.406 49.174C48.4018 49.3331 49.2495 49.4657 49.7609 49.5983C50.2588 50.0624 50.649 50.6589 50.9854 51.2025C51.0257 51.2954 51.0796 51.3749 51.1603 51.4412C51.3891 51.6666 51.7255 51.7461 52.0215 51.6533C52.156 51.6136 52.2771 51.5473 52.3848 51.4412C52.3848 51.4412 52.3848 51.4412 52.3982 51.4412C52.4117 51.4412 52.3982 51.4412 52.4117 51.4412C52.5193 51.3351 52.5866 51.2157 52.627 51.0831C52.7077 50.7915 52.6403 50.4601 52.4117 50.2346C52.331 50.1683 52.2502 50.102 52.1695 50.0623C51.6582 49.7573 51.1199 49.4258 50.6893 49.0016C50.5547 48.6436 50.4068 48.0205 50.2318 47.3177C49.6936 45.1565 48.9131 42.0275 47.4599 40.0918C48.2 40.0786 48.8593 39.9858 49.4379 39.9194C50.4068 39.8001 51.1065 39.7073 51.6851 39.9858C52.7885 40.9403 53.8516 42.0938 54.8339 43.4595C54.9684 43.6451 55.224 43.6849 55.4125 43.5523C55.6008 43.4197 55.6412 43.1678 55.5067 42.9821C54.013 40.9007 52.358 39.3228 50.6491 38.1164C53.5959 37.9175 55.6144 36.7639 57.7539 35.5442C57.9557 35.4248 58.5478 35.0934 58.5613 35.0934C59.6378 34.5232 60.8757 34.0857 62.0061 33.7807C63.4728 33.6481 64.5224 33.7675 65.6527 34.0725C65.7738 34.1122 65.9083 34.1388 66.0428 34.1388C66.6619 34.1388 67.1732 33.6349 67.1732 33.025L67.1598 32.9985ZM57.2426 31.1158C56.3276 31.3545 55.5875 31.6196 54.9148 31.8716C53.9996 32.1897 53.2058 32.4814 52.3042 32.5875H50.5819C49.3439 32.5212 48.4691 32.2428 47.3658 31.8716C46.5181 31.5931 45.5762 31.2749 44.244 30.9832C45.9125 30.4794 47.6888 29.7634 49.4516 28.6895C52.802 28.6099 54.9685 29.8297 57.2426 31.1158ZM37.9464 32.9985C37.9464 32.7864 37.933 32.5742 37.8925 32.3621C40.9336 31.7521 42.9656 31.5401 43.9478 31.7521C45.2421 32.0356 46.1808 32.344 47.0106 32.6167C47.035 32.6246 47.059 32.6325 47.0831 32.6405C47.4734 32.773 47.8367 32.8924 48.2 32.9985C47.8308 33.1024 47.4877 33.219 47.1069 33.3483C47.099 33.351 47.0911 33.3537 47.0831 33.3564C47.059 33.3644 47.0348 33.3722 47.0105 33.3803C46.1807 33.6529 45.2421 33.9614 43.9478 34.2448C42.9655 34.4569 40.9336 34.2447 37.8925 33.6348C37.933 33.4228 37.96 33.2107 37.9464 32.9985ZM49.3169 26.9129C49.7071 26.9659 50.0839 27.0056 50.4472 27.0322C50.0301 27.3503 49.5994 27.6288 49.1823 27.8939C49.1151 27.9337 49.0477 27.9868 48.9671 28.0266C45.3877 30.1877 41.7545 30.8374 39.1979 31.2882C38.6462 31.3942 38.1482 31.4738 37.7042 31.5666C37.6638 31.4605 37.6235 31.3545 37.5697 31.2484C37.7177 31.1423 38.081 30.9036 38.0944 30.9036C39.4805 29.9888 41.6065 28.6364 43.2751 27.7614C44.1362 27.3106 44.8764 26.9791 45.3204 26.8996C45.7645 26.8201 46.1815 26.7802 46.5718 26.767C47.6618 26.7007 48.5634 26.82 49.3169 26.9129ZM41.2028 38.766C41.1759 38.4876 41.0683 38.1693 40.8531 37.7848C41.5123 38.1826 42.1986 38.567 42.8311 38.8986C43.3154 39.5217 43.9614 40.4896 44.4593 41.7492C44.6342 42.1867 44.7822 42.6109 44.9168 43.022C45.1052 43.5789 45.2936 44.1225 45.5223 44.6395C44.9975 44.4142 44.4324 44.2285 43.8672 44.0562C43.4366 43.9237 43.0061 43.7778 42.562 43.6187C40.8531 42.9822 39.8843 42.2266 39.2921 41.7493C39.0499 41.1659 38.7674 40.5692 38.404 39.9063C38.8615 40.1715 39.2518 40.2908 39.5613 40.3306C40.0592 40.3969 40.5167 40.2775 40.8262 39.9991L40.8531 39.9726C41.0279 39.8002 41.2835 39.4156 41.2028 38.766ZM26.3875 39.9858L26.4145 40.0123C26.724 40.2908 27.1815 40.4101 27.6794 40.3438C28.0023 40.304 28.3926 40.1847 28.8366 39.9195C28.4733 40.5692 28.1772 41.1791 27.9485 41.7624C27.3564 42.2398 26.3875 42.9955 24.6786 43.6319C24.2346 43.791 23.7906 43.9369 23.3734 44.0694C22.8082 44.2551 22.2431 44.4275 21.7183 44.6528C21.9605 44.1358 22.1354 43.5922 22.3238 43.0353C22.4583 42.6242 22.6064 42.1999 22.7813 41.7624C23.2792 40.5028 23.9386 39.5349 24.4095 38.9118C25.0419 38.5803 25.7147 38.1958 26.3875 37.798C26.1723 38.1826 26.0646 38.514 26.0377 38.7792C25.957 39.4156 26.2261 39.8002 26.3875 39.9858ZM26.0377 27.2178C26.0646 27.4962 26.1723 27.8144 26.3875 28.1989C25.7282 27.8012 25.0419 27.4167 24.4095 27.0852C23.9251 26.462 23.2792 25.4942 22.7813 24.2346C22.6064 23.797 22.4583 23.3728 22.3238 22.9617C22.1354 22.4049 21.947 21.8613 21.7183 21.3441C22.2431 21.5695 22.8082 21.7552 23.3734 21.9276C23.8039 22.0601 24.2346 22.206 24.6786 22.3651C26.3875 23.0015 27.3564 23.7572 27.9485 24.2345C28.1907 24.8179 28.4733 25.4145 28.8366 26.0775C28.3791 25.8123 27.9889 25.693 27.6794 25.6532C27.1815 25.5869 26.724 25.7062 26.4145 25.9846L26.3875 26.0112C26.2261 26.1836 25.957 26.5682 26.0377 27.2178ZM40.853 25.998L40.8261 25.9715C40.5166 25.693 40.059 25.5737 39.5612 25.6399C39.2383 25.6797 38.8479 25.7991 38.4039 26.0642C38.7673 25.4145 39.0498 24.8047 39.292 24.2213C39.8841 23.744 40.8529 22.9883 42.5619 22.3518C43.006 22.1928 43.45 22.0469 43.8671 21.9143C44.4323 21.7288 44.9974 21.5563 45.5222 21.3309C45.28 21.848 45.105 22.3916 44.9166 22.9485C44.7821 23.3596 44.6341 23.7838 44.4592 24.2214C43.9613 25.4809 43.3019 26.4489 42.831 27.0719C42.1985 27.4034 41.5257 27.7879 40.8529 28.1856C41.0681 27.8012 41.1758 27.4698 41.2027 27.2045C41.2835 26.5682 41.0279 26.1836 40.853 25.998ZM33.627 36.4458C31.5547 36.4458 30.1149 34.7619 30.1149 32.9853C30.1149 31.2219 31.5413 29.5248 33.627 29.5248C35.6993 29.5248 37.1391 31.2086 37.1391 32.9853C37.1256 34.7619 35.6993 36.4458 33.627 36.4458ZM34.1518 37.5728C35.1879 39.3361 35.6185 40.0653 35.6185 41.8685C35.6185 43.6982 35.0533 44.7854 34.4074 46.045C34.3402 46.1643 34.2863 46.2836 34.219 46.4162C33.9768 46.9068 33.775 47.4769 33.6135 48.0072C33.4654 47.4769 33.2636 46.9069 33.008 46.4162C32.9407 46.2969 32.8867 46.1643 32.8195 46.045C32.1736 44.7854 31.6084 43.6982 31.6084 41.8685C31.6084 40.0654 32.039 39.3361 33.0751 37.5728C33.1425 37.4666 33.1962 37.3606 33.2636 37.2412C33.3712 37.2544 33.4788 37.2545 33.5999 37.2545C33.7211 37.2545 33.8153 37.2544 33.9229 37.2412C34.0172 37.3606 34.0845 37.4666 34.1518 37.5728ZM36.2106 29.5778C36.3048 29.4187 36.3989 29.2861 36.5066 29.1403L36.5201 29.1271C36.5201 29.1138 36.5335 29.1138 36.5335 29.1005C36.5335 29.1005 36.5335 29.1005 36.5335 29.0873C38.1214 26.8732 39.2247 26.5019 39.6687 26.4489C40.0186 26.4091 40.207 26.5151 40.2608 26.5682C40.3281 26.6478 40.4223 26.8201 40.3819 27.1251C40.3146 27.6288 39.8572 28.663 37.6369 30.2275C37.4889 30.3335 37.3275 30.4396 37.1525 30.5589C36.8969 30.1745 36.5739 29.843 36.2106 29.5778ZM38.5923 23.7838C38.5788 23.8236 38.5654 23.8501 38.552 23.8899C38.0272 25.2025 37.1794 26.6609 35.8742 28.6099C35.8742 28.6099 35.8742 28.6231 35.8608 28.6231C35.7397 28.7955 35.632 28.9678 35.5109 29.1535C35.2957 29.0475 35.0669 28.9546 34.8247 28.8884C34.8381 28.8618 34.8517 28.8353 34.865 28.8221C35.484 27.7614 35.9281 27.0189 36.1837 26.1704C36.1837 26.1571 36.1972 26.1571 36.1972 26.1438C36.6009 24.9638 37.0315 23.8899 37.5024 22.9352C37.5024 22.922 37.5158 22.9087 37.5158 22.8954V22.8822C38.0406 21.848 38.6328 20.9597 39.319 20.2703C39.2651 21.5166 39.0498 22.5905 38.5923 23.7838ZM34.1383 28.411C34.0711 28.5172 34.0172 28.6231 33.95 28.7425C33.8423 28.7292 33.7346 28.7292 33.6135 28.7292C33.4924 28.7292 33.3983 28.7292 33.2772 28.7425C33.2099 28.6231 33.1426 28.5172 33.0887 28.411C32.0527 26.6477 31.622 25.9184 31.622 24.1152C31.622 22.2855 32.1872 21.1983 32.833 19.9387C32.9003 19.8194 32.9541 19.7001 33.0214 19.5675C33.2771 19.0769 33.4654 18.5068 33.6269 17.9765C33.775 18.5068 33.9768 19.0769 34.2325 19.5675C34.2998 19.6868 34.3537 19.8194 34.4209 19.9387C35.0668 21.1983 35.632 22.2855 35.632 24.1152C35.6185 25.9184 35.1879 26.6477 34.1383 28.411ZM32.389 28.8221C32.4024 28.8486 32.4159 28.8751 32.4294 28.8884C32.1872 28.9546 31.9583 29.0475 31.7431 29.1535C31.622 28.9679 31.5009 28.7955 31.3797 28.6231C31.3797 28.6231 31.3798 28.6099 31.3664 28.6099C30.0611 26.6609 29.2134 25.2025 28.6885 23.8899C28.6751 23.8634 28.6617 23.8236 28.6482 23.797C28.1772 22.6038 27.9754 21.5299 27.9081 20.2703C28.6078 20.9597 29.1865 21.848 29.7113 22.8822C29.7113 22.8822 29.7113 22.8822 29.7113 22.8954C29.7247 22.9087 29.7247 22.922 29.7382 22.9352C30.2092 23.8766 30.6397 24.9638 31.0434 26.1438C31.0434 26.157 31.0434 26.157 31.0569 26.1704C31.326 27.0189 31.7701 27.7614 32.389 28.8221ZM26.9796 26.5549C27.0335 26.5018 27.2218 26.3958 27.5717 26.4355C28.0023 26.4886 29.1192 26.8731 30.707 29.074C30.707 29.074 30.707 29.074 30.707 29.0873C30.707 29.1005 30.7204 29.1005 30.7204 29.1138L30.7338 29.127C30.8281 29.2596 30.9357 29.4054 31.0299 29.5513C30.6666 29.8164 30.3437 30.148 30.0745 30.5192C29.913 30.4131 29.7516 30.3071 29.5902 30.1877C27.3699 28.6232 26.9124 27.589 26.8451 27.0852C26.8181 26.8067 26.9124 26.6344 26.9796 26.5549ZM30.0745 35.4381C30.3437 35.8093 30.6666 36.1408 31.0299 36.406C30.9223 36.5518 30.8281 36.6976 30.7338 36.8303L30.7204 36.8434C30.7204 36.8567 30.707 36.8567 30.707 36.87C30.707 36.87 30.707 36.87 30.707 36.8832C29.1192 39.0974 28.0157 39.4687 27.5717 39.5217C27.2218 39.5615 27.0335 39.4553 26.9796 39.4023C26.9124 39.3228 26.8181 39.1504 26.8451 38.8455C26.9124 38.3416 27.3699 37.3076 29.5902 35.7431C29.7516 35.6635 29.9131 35.5442 30.0745 35.4381ZM28.6617 42.2C28.6752 42.1602 28.6885 42.1337 28.702 42.0939C29.2268 40.7813 30.0745 39.3229 31.3798 37.3739C31.3798 37.3739 31.3798 37.3607 31.3932 37.3607C31.5144 37.1883 31.622 37.016 31.7566 36.8303C31.9719 36.9363 32.2006 37.0292 32.4429 37.0955C32.4295 37.122 32.4159 37.1485 32.4025 37.1618C31.7836 38.2224 31.3395 38.965 31.0838 39.8135C31.0838 39.8267 31.0703 39.8267 31.0703 39.84C30.6666 41.02 30.2361 42.0939 29.7651 43.0486C29.7651 43.0619 29.7517 43.0752 29.7382 43.0884V43.1016C29.2135 44.1358 28.6213 45.0241 27.9351 45.7135C27.9754 44.4672 28.1907 43.3933 28.6617 42.2ZM30.4917 43.3933C30.6129 43.1546 30.7205 42.9159 30.8415 42.664C30.9761 44.2285 31.5278 45.2892 32.093 46.4029C32.1603 46.5222 32.2141 46.6415 32.2815 46.7741C32.8332 47.8613 33.1427 49.4392 33.2099 50.0357C33.2368 50.2479 33.4118 50.3937 33.6136 50.3937C33.8155 50.3937 34.0038 50.2346 34.0173 50.0357C34.0846 49.4391 34.394 47.8613 34.9458 46.7741C35.0131 46.6548 35.0669 46.5354 35.1342 46.4029C35.7128 45.2892 36.2511 44.2285 36.3857 42.664C36.4932 42.9159 36.6144 43.1545 36.7354 43.3933C37.1526 45.3555 37.018 47.1852 36.3184 49.1607C35.8204 50.5529 35.188 51.5208 34.6363 52.3826C34.2461 52.9925 33.8693 53.5626 33.6137 54.1857C33.3446 53.5626 32.9812 52.9925 32.591 52.3826C32.0393 51.5208 31.4068 50.5396 30.909 49.1607C30.2091 47.1852 30.0745 45.3555 30.4917 43.3933ZM36.1836 39.8532C36.1836 39.84 36.1836 39.84 36.1702 39.8267C35.9145 38.9782 35.4705 38.2224 34.8515 37.175C34.8381 37.1484 34.8245 37.1219 34.8111 37.1087C35.0533 37.0424 35.2821 36.9496 35.4974 36.8435C35.6185 37.0292 35.7396 37.2015 35.8472 37.3739C35.8472 37.3739 35.8472 37.3871 35.8606 37.3871C37.1659 39.3361 38.0136 40.7945 38.5385 42.1072C38.5518 42.1337 38.5653 42.1734 38.5787 42.2C39.0497 43.3933 39.2516 44.4672 39.3189 45.7267C38.6192 45.0374 38.0405 44.149 37.5157 43.1148C37.5157 43.1148 37.5157 43.1148 37.5157 43.1016C37.5023 43.0884 37.5023 43.0751 37.5023 43.0619C37.018 42.1204 36.6008 41.0465 36.1836 39.8532ZM40.2609 39.4289C40.207 39.482 40.0187 39.588 39.6688 39.5483C39.2382 39.4952 38.1214 39.1107 36.5336 36.9098C36.5336 36.9098 36.5336 36.9098 36.5336 36.8966C36.5336 36.8833 36.5202 36.8833 36.5202 36.87L36.5067 36.8568C36.4125 36.7243 36.3048 36.5784 36.2107 36.4325C36.574 36.1674 36.8969 35.8358 37.1661 35.4646C37.3275 35.5707 37.4889 35.6768 37.6504 35.7961C39.8707 37.3606 40.3282 38.3948 40.3955 38.8986C40.4224 39.177 40.3281 39.3494 40.2609 39.4289ZM49.4245 18.5202C48.8459 20.8272 47.9848 24.2876 46.3566 25.9582C45.9798 25.9847 45.603 26.0245 45.1859 26.0908C44.9437 26.1306 44.6343 26.2234 44.2978 26.3693C44.6207 25.8389 44.9437 25.2158 45.2262 24.513C45.4012 24.0622 45.5492 23.6247 45.6973 23.2004C46.101 22.0337 46.4373 21.0127 47.2716 20.1907C47.2985 20.1641 49.5726 17.9367 49.5726 17.9367C49.5322 18.1357 49.4784 18.3213 49.4245 18.5202ZM40.1801 19.5543C40.7722 19.1433 41.4316 18.8516 42.1986 18.6793C44.3516 18.202 46.1413 17.9103 47.5811 17.6849C48.0924 17.6053 48.5365 17.5391 48.9132 17.4727L46.693 19.6471C45.8722 20.4559 44.8225 20.7874 43.6249 21.1719C43.1943 21.3044 42.7369 21.4503 42.2794 21.6226C41.2028 22.0204 40.382 22.4844 39.7631 22.8955C40.0456 21.8215 40.1533 20.7608 40.1801 19.5543ZM34.0307 6.38858C34.071 6.49462 34.1113 6.61399 34.1518 6.73329C34.542 7.80724 35.0533 8.94746 35.7127 9.96839C37.5293 12.7792 39.3055 15.8021 39.3459 19.1565C38.7538 19.6206 38.2425 20.1907 37.7849 20.8272C37.8388 19.4085 37.61 17.9898 37.0987 16.5579C36.579 15.1004 35.9273 14.0851 35.3528 13.19C35.3471 13.1812 35.3415 13.1724 35.3359 13.1637C34.6094 12.0368 34.0308 11.1351 34.0308 9.78275V6.38858H34.0307ZM34.6496 13.6012C35.2013 14.463 35.8339 15.4442 36.3317 16.8231C37.0314 18.7986 37.166 20.6283 36.7488 22.5905C36.6277 22.8292 36.5201 23.0679 36.399 23.3198C36.2644 21.7553 35.7127 20.6946 35.1476 19.5809C35.0802 19.4616 35.0264 19.3422 34.9591 19.2096C34.4074 18.1224 34.0979 16.5446 34.0307 15.948C34.0037 15.7359 33.8288 15.59 33.6269 15.59C33.425 15.59 33.2368 15.7491 33.2232 15.948C33.1559 16.5446 32.8465 18.1224 32.2948 19.2096C32.2275 19.3289 32.1737 19.4483 32.1064 19.5809C31.5277 20.6946 30.9895 21.7553 30.8549 23.3198C30.7473 23.0679 30.6261 22.8292 30.5051 22.5905C30.0879 20.6283 30.2225 18.7986 30.9222 16.8231C31.4201 15.4309 32.0526 14.463 32.6042 13.6012C32.9944 12.9913 33.3712 12.4212 33.6269 11.7981C33.8827 12.4212 34.2594 12.9913 34.6496 13.6012ZM31.5278 9.96839C32.1872 8.94746 32.712 7.80724 33.0888 6.73329C33.1291 6.61392 33.1695 6.50788 33.2099 6.38858V9.78275C33.2099 11.1394 32.6388 12.025 31.919 13.1415C31.9142 13.1489 31.9095 13.1563 31.9047 13.1637C31.8991 13.1724 31.8935 13.1812 31.8878 13.19C31.3134 14.0851 30.6616 15.1004 30.142 16.5579C29.6307 17.9898 29.4019 19.4085 29.4557 20.8272C28.9981 20.1907 28.4868 19.6206 27.8947 19.1565C27.935 15.8021 29.7113 12.7792 31.5278 9.96839ZM19.6729 17.6716C21.1127 17.897 22.9024 18.1887 25.0554 18.666C25.809 18.8384 26.4818 19.13 27.0738 19.5411C27.0873 20.7608 27.2084 21.8083 27.491 22.869C26.872 22.458 26.0646 22.0072 24.9747 21.5961C24.5037 21.4238 24.0597 21.2779 23.6291 21.1454C22.4315 20.7608 21.3818 20.4294 20.5611 19.6206L18.3408 17.4462C18.7175 17.5258 19.1616 17.5921 19.6729 17.6716ZM17.816 18.5202C17.7621 18.3213 17.7218 18.1224 17.668 17.95C17.668 17.95 19.9421 20.1775 19.969 20.204C20.7898 21.0128 21.1396 22.0337 21.5433 23.2137C21.6914 23.638 21.8394 24.0755 22.0143 24.5263C22.2969 25.2291 22.6198 25.8522 22.9428 26.3826C22.593 26.2367 22.2969 26.1439 22.0546 26.1041C21.6376 26.0379 21.2473 25.9848 20.884 25.9715C19.2558 24.2876 18.3946 20.8272 17.816 18.5202ZM17.9236 26.9129C18.6906 26.82 19.5788 26.7007 20.6552 26.7537C21.0455 26.7802 21.4626 26.82 21.9067 26.8863C22.3507 26.9658 23.0908 27.2841 23.952 27.7481C25.6206 28.6231 27.7466 29.9756 29.1326 30.8904C29.1461 30.8904 29.5094 31.1422 29.6574 31.2351C29.6035 31.3411 29.5632 31.434 29.5228 31.5533C29.0788 31.4604 28.5809 31.3677 28.0292 31.2749C25.4725 30.8241 21.8394 30.1745 18.26 28.0132C18.1928 27.9736 18.1254 27.9338 18.0447 27.8806C17.6141 27.6155 17.197 27.337 16.7798 27.0189C17.1567 27.0189 17.5334 26.9659 17.9236 26.9129ZM29.2941 32.9985C29.2941 33.2106 29.3076 33.4228 29.348 33.6349C26.3068 34.2448 24.2749 34.4569 23.2926 34.2449C21.9984 33.9615 21.0598 33.6531 20.23 33.3804C20.2057 33.3724 20.1815 33.3645 20.1574 33.3565C19.7806 33.2239 19.4038 33.1046 19.0405 32.9985C19.4173 32.8925 19.7806 32.773 20.1574 32.6405C20.1814 32.6326 20.2056 32.6247 20.2299 32.6166C21.0597 32.344 21.9983 32.0355 23.2926 31.7521C24.2749 31.5401 26.3068 31.7521 29.348 32.3621C29.3076 32.561 29.2941 32.7731 29.2941 32.9985ZM17.7891 28.6895C19.5518 29.7634 21.3281 30.4794 22.9966 30.9832C21.6779 31.2749 20.7225 31.5931 19.8748 31.8716C18.7714 32.2428 17.8967 32.5345 16.6587 32.5875H14.9364C14.0348 32.4814 13.2544 32.1897 12.3258 31.8716C11.653 31.6329 10.8995 31.3677 9.98451 31.1158C12.2721 29.8297 14.4385 28.6099 17.7891 28.6895ZM8.9618 34.2846C8.30245 33.9399 7.58926 33.6481 6.87606 33.3963C6.41859 33.2372 5.96106 33.1045 5.53045 32.9853C5.96106 32.8659 6.41859 32.7334 6.87606 32.5742C7.58919 32.3223 8.30238 32.0307 8.9618 31.6859C10.2267 31.9777 11.1956 32.3091 12.0567 32.6141C12.4201 32.7466 12.7699 32.8658 13.1063 32.972C12.7699 33.0781 12.4201 33.2107 12.0567 33.33C11.1956 33.6614 10.2267 33.9929 8.9618 34.2846ZM9.99797 34.868C10.913 34.6293 11.653 34.3642 12.3393 34.1123C13.2543 33.7941 14.0483 33.5024 14.9498 33.3963H16.6722C17.9102 33.4627 18.7849 33.7411 19.8882 34.1123C20.736 34.3907 21.6779 34.7089 23.01 35.0005C21.3415 35.5045 19.5653 36.2204 17.8025 37.2944C14.452 37.3739 12.2721 36.1541 9.99797 34.868ZM17.9236 39.0709C17.5334 39.0179 17.1567 38.9782 16.7933 38.9516C17.2104 38.6335 17.641 38.355 18.0582 38.0898C18.1254 38.0501 18.1928 37.997 18.2735 37.9572C21.8528 35.7961 25.486 35.1464 28.0427 34.6957C28.5944 34.5896 29.0922 34.51 29.5363 34.4173C29.5767 34.5234 29.6171 34.6293 29.6709 34.7354C29.5229 34.8415 29.1595 35.0802 29.1462 35.0802C27.7601 35.995 25.6341 37.3473 23.9655 38.2224C23.1044 38.6732 22.3642 39.0047 21.9202 39.0842C21.4762 39.1637 21.059 39.2036 20.6688 39.2168C19.5788 39.2831 18.6906 39.1637 17.9236 39.0709ZM17.816 47.4636C18.3946 45.1566 19.2558 41.6962 20.884 40.0256C21.2607 39.999 21.6376 39.9592 22.0546 39.893C22.2969 39.8532 22.593 39.7604 22.9428 39.6146C22.6198 40.145 22.2969 40.768 22.0143 41.4708C21.8394 41.9216 21.6779 42.3591 21.5433 42.7834C21.1396 43.9502 20.8033 44.9711 19.969 45.7931C19.9421 45.8197 17.668 48.0471 17.668 48.0471C17.7218 47.8481 17.7621 47.6625 17.816 47.4636ZM27.0738 46.4295C26.4818 46.8404 25.8224 47.1322 25.0554 47.3045C22.9024 47.7818 21.1127 48.0735 19.6729 48.2989C19.1616 48.3784 18.7175 48.4447 18.3408 48.511L20.5611 46.3366C21.3818 45.5278 22.4315 45.1964 23.6291 44.8118C24.0597 44.6793 24.5171 44.5335 24.9747 44.3611C26.0512 43.9633 26.872 43.4993 27.491 43.0882C27.2084 44.1623 27.0873 45.223 27.0738 46.4295ZM33.2099 59.5952C33.1695 59.4892 33.1291 59.3698 33.0887 59.2506C32.6985 58.1766 32.1872 57.0364 31.5277 56.0155C29.7112 53.2047 27.935 50.1817 27.8946 46.8273C28.4867 46.3633 28.998 45.7931 29.4555 45.1567C29.4017 46.5754 29.6305 47.9941 30.1419 49.426C30.6615 50.8834 31.3132 51.8988 31.8877 52.7939C31.8933 52.8027 31.8989 52.8114 31.9046 52.8201C32.6311 53.9471 33.2098 54.8487 33.2098 56.2012V59.5952H33.2099ZM35.7261 56.0154C35.0668 57.0363 34.542 58.1766 34.1652 59.2505C34.1249 59.3698 34.0845 59.4759 34.0441 59.5951V56.201C34.0441 54.8444 34.6151 53.9588 35.335 52.8423C35.3398 52.8349 35.3445 52.8275 35.3493 52.8201C35.3549 52.8114 35.3605 52.8026 35.3662 52.7938C35.9406 51.8987 36.5923 50.8834 37.112 49.4259C37.6233 47.9941 37.8522 46.5753 37.7983 45.1566C38.2558 45.7931 38.7671 46.3633 39.3592 46.8272C39.319 50.1817 37.5427 53.2046 35.7261 56.0154ZM47.5676 48.2989C46.1278 48.0735 44.3381 47.7819 42.1851 47.3046C41.4316 47.1323 40.7587 46.8405 40.1667 46.4295C40.1533 45.2097 40.0322 44.1623 39.736 43.1016C40.355 43.5126 41.1758 43.9634 42.2524 44.3744C42.7234 44.5468 43.1674 44.6927 43.5979 44.8252C44.7955 45.2097 45.8452 45.5412 46.6659 46.35L48.8862 48.5244C48.523 48.458 48.0789 48.3917 47.5676 48.2989ZM49.4245 47.4636C49.4785 47.6625 49.5188 47.8614 49.5726 48.0338C49.5726 48.0338 47.2985 45.8063 47.2716 45.7799C46.4508 44.9711 46.101 43.9502 45.6973 42.7701C45.5493 42.3458 45.4012 41.9083 45.2262 41.4575C44.9437 40.7548 44.6207 40.1316 44.2978 39.6013C44.6476 39.7472 44.9437 39.84 45.1859 39.8797C45.603 39.946 45.9933 39.9991 46.3566 40.0123C47.9847 41.6962 48.8459 45.1566 49.4245 47.4636ZM49.3169 39.0709C48.5499 39.1638 47.6618 39.2831 46.5853 39.2301C46.1951 39.2036 45.7778 39.1638 45.3338 39.0975C44.8898 39.018 44.1496 38.6997 43.2884 38.2357C41.6199 37.3607 39.4939 36.0083 38.1078 35.0935C38.0944 35.0935 37.7311 34.8416 37.5831 34.7487C37.6234 34.6427 37.6773 34.5499 37.7177 34.4305C38.1617 34.5234 38.6596 34.6161 39.2113 34.7089C41.768 35.1598 45.4011 35.8094 48.9804 37.9706C49.0477 38.0103 49.115 38.0501 49.1957 38.1032C49.6264 38.3683 50.0435 38.6468 50.4606 38.965C50.0973 38.9649 49.7206 39.0179 49.3169 39.0709ZM49.4515 37.2943C47.6886 36.2204 45.9124 35.5044 44.2438 35.0005C45.5626 34.7088 46.518 34.3906 47.3657 34.1122C48.469 33.741 49.3438 33.4493 50.5817 33.3963H52.3041C53.2057 33.5024 53.9861 33.794 54.9146 34.1122C55.5874 34.3509 56.341 34.6161 57.2425 34.8679C54.9685 36.1541 52.802 37.3739 49.4515 37.2943ZM60.3779 33.3963C59.6647 33.6481 58.9515 33.9399 58.2923 34.2846C57.0139 33.9929 56.0585 33.6614 55.1972 33.3565C54.8339 33.2239 54.4841 33.1046 54.1342 32.9985C54.4841 32.8925 54.8205 32.7599 55.1839 32.6405C55.2133 32.6301 55.2429 32.6196 55.2725 32.6091C56.1107 32.312 57.0441 31.9813 58.2788 31.7124C58.9381 32.0571 59.6513 32.3489 60.3645 32.6007C60.8219 32.7599 61.2795 32.8925 61.71 33.0117C61.2795 33.1046 60.8219 33.2504 60.3779 33.3963Z" fill="#231F20"/>
</g>
<defs>
<clipPath id="clip0_2002_2796">
<rect width="157" height="66" fill="white"/>
</clipPath>
</defs>
</svg>
