<svg width="60" height="60" viewBox="0 0 60 60" fill="none" xmlns="http://www.w3.org/2000/svg">
<rect width="60" height="60" fill="#F3F3F3"/>
<g clip-path="url(#clip0_2059_3150)">
<path d="M35.937 44.4635L30.8203 32.4002C30.5336 32.9668 29.6158 34.7346 28.067 37.7035C26.5181 40.6724 25.3692 42.9263 24.6203 44.4652C24.4587 44.4832 24.2957 44.4854 24.1336 44.4718H24.142L24.0386 44.4735C23.9131 44.4735 23.7897 44.4635 23.6686 44.4435L23.682 44.4452C22.7331 42.2118 21.2542 38.8152 19.2453 34.2552C17.2364 29.6952 15.7342 26.2457 14.7386 23.9068C14.4355 23.2312 14.0438 22.5989 13.5736 22.0268L13.5853 22.0402C13.071 21.3917 12.4756 20.8119 11.8136 20.3152L11.7886 20.2968C11.2949 19.8706 10.6799 19.6101 10.0303 19.5518L10.0186 19.5502C10.0186 19.4924 10.0158 19.3535 10.0103 19.1335C10.0047 18.9135 10.002 18.7568 10.002 18.6635H20.1236V19.5318C19.6422 19.5594 19.1673 19.6566 18.7136 19.8202L18.7486 19.8085C18.3067 19.954 17.9096 20.2105 17.5953 20.5535L17.5936 20.5552C17.4499 20.6985 17.3558 20.884 17.3252 21.0847C17.2947 21.2853 17.3291 21.4905 17.4236 21.6702L17.4203 21.6652C17.7214 22.3474 18.9742 25.2363 21.1786 30.3318C23.3831 35.4274 24.7458 38.5529 25.267 39.7085C25.6225 39.0029 26.4325 37.4607 27.697 35.0818C28.9614 32.7029 29.7192 31.2707 29.9703 30.7852C29.7503 30.334 29.0208 28.7085 27.782 25.9085C26.5431 23.1085 25.7564 21.4013 25.422 20.7868C24.982 19.9868 23.8186 19.5757 21.932 19.5535V18.6818L30.837 18.6985V19.5152H30.7703C30.1953 19.5152 29.6586 19.6752 29.2003 19.9535L29.2136 19.9452C28.8258 20.2118 28.7536 20.6118 28.997 21.1452C29.3792 21.9563 29.8825 23.0529 30.507 24.4352C31.1314 25.8174 31.6286 26.9024 31.9986 27.6902C33.272 25.2135 34.2731 23.1129 35.002 21.3885C35.2797 20.7518 35.2225 20.2929 34.8303 20.0118C34.1373 19.6533 33.3584 19.494 32.5803 19.5518H32.5936C32.6053 19.4435 32.612 19.3185 32.612 19.1918V19.1168V19.1202V18.7035C33.352 18.7035 34.3386 18.7007 35.572 18.6952L40.2953 18.6702V19.5202C39.5623 19.5446 38.846 19.7453 38.207 20.1052L38.2303 20.0935C37.6089 20.4209 37.0764 20.8945 36.6786 21.4735L36.6686 21.4885L32.9703 29.1618C33.1203 29.544 33.8581 31.2224 35.1836 34.1968C36.5092 37.1713 37.2125 38.7568 37.2936 38.9535L44.9503 21.2985C44.7851 20.859 44.4875 20.4816 44.0986 20.2185L44.0903 20.2135C43.7586 19.9665 43.3839 19.7834 42.9853 19.6735L42.9603 19.6668C42.6475 19.5918 42.3283 19.5472 42.007 19.5335H41.997V18.6602L49.9836 18.7302L50.0003 18.7652L49.9836 19.5285C49.2184 19.5389 48.4746 19.7832 47.8522 20.2286C47.2299 20.674 46.7587 21.2992 46.502 22.0202L46.4936 22.0468C40.4025 36.1202 37.167 43.5907 36.787 44.4585L35.937 44.4635Z" fill="black"/>
</g>
<defs>
<clipPath id="clip0_2059_3150">
<rect width="40" height="40" fill="white" transform="translate(10 12)"/>
</clipPath>
</defs>
</svg>
