<svg width="18" height="14" viewBox="0 0 18 14" fill="none" xmlns="http://www.w3.org/2000/svg">
<path d="M8.99967 2.1665L17.333 2.1665M0.666341 11.8332L4.7021 11.8332M0.666342 2.1665L5.5 2.1665M8.16634 11.8332L17.333 11.8332M13.583 6.99984L17.333 6.99984M0.666342 6.99984L9.83301 6.99984" stroke="black" stroke-linecap="round"/>
<path d="M5.66667 2.16667C5.66667 3.08714 6.41286 3.83333 7.33333 3.83333C8.25381 3.83333 9 3.08714 9 2.16667C9 1.24619 8.25381 0.5 7.33333 0.5C6.41286 0.5 5.66667 1.24619 5.66667 2.16667Z" stroke="black" stroke-linecap="round"/>
<path d="M9.83268 7.00016C9.83268 7.92064 10.5789 8.66683 11.4993 8.66683C12.4198 8.66683 13.166 7.92064 13.166 7.00016C13.166 6.07969 12.4198 5.3335 11.4993 5.3335C10.5789 5.3335 9.83268 6.07969 9.83268 7.00016Z" stroke="black" stroke-linecap="round"/>
<path d="M4.83268 11.8332C4.83268 12.7536 5.57887 13.4998 6.49935 13.4998C7.41982 13.4998 8.16602 12.7536 8.16602 11.8332C8.16602 10.9127 7.41982 10.1665 6.49935 10.1665C5.57887 10.1665 4.83268 10.9127 4.83268 11.8332Z" stroke="black" stroke-linecap="round"/>
</svg>
