<svg width="331" height="140" viewBox="0 0 331 140" fill="none" xmlns="http://www.w3.org/2000/svg">
<g clip-path="url(#clip0_2002_1519)">
<path d="M158.151 73.0117L146.406 44.569C145.889 43.3174 144.659 42.4995 143.294 42.4995H142.027V40.1562L150.026 40.2057L150.814 42.4996L161.965 70.1423H160.324L171.042 44.0282C171.342 43.298 170.8 42.4996 170.004 42.4996H166.652L167.584 40.1562H175.618L174.712 42.4996L162.063 73.0117H158.151Z" fill="white"/>
<path d="M178.412 72.7726V70.4292H181.759C182.377 70.4292 182.88 69.9322 182.88 69.319V43.6098C182.88 42.9967 182.377 42.4996 181.759 42.4996H178.51V40.1562H192.127V42.4996H188.876C188.258 42.4996 187.755 42.9967 187.755 43.6098V69.319C187.755 69.9323 188.258 70.4292 188.876 70.4292H192.223V72.7726H178.412Z" fill="white"/>
<path d="M231.972 72.7726V70.4292H235.317C235.937 70.4292 236.438 69.9322 236.438 69.319V43.6098C236.438 42.9967 235.937 42.4996 235.317 42.4996H232.068V40.1562H245.685V42.4996H242.436C241.816 42.4996 241.315 42.9967 241.315 43.6098V69.319C241.315 69.9323 241.816 70.4292 242.436 70.4292H245.781V72.7726H231.972Z" fill="white"/>
<path d="M152.713 83.8252H143.153V86.1686H144.522C146.379 86.1686 147.884 87.6598 147.884 89.4993V114.098H143.056V116.442H160.968V114.098H156.074C154.217 114.098 152.713 112.607 152.713 110.767V100.994H157.684C161.092 100.994 161.209 101.602 161.209 104.414H163.575V100.994V98.5554V95.1623H161.209C161.209 97.7239 160.987 98.5554 157.684 98.5554H152.713V86.3121H165.168C166.584 86.3121 167.549 86.6149 168.065 87.2208C168.612 87.7947 168.886 88.8309 168.886 90.3295V96.0683H171.445V86.3121V83.8253L152.713 83.8252Z" fill="white"/>
<path d="M192.388 116.968C187.882 116.968 184.26 115.82 181.974 113.524C179.722 111.229 178.595 107.977 178.595 103.768V89.4993C178.595 87.6597 177.09 86.1686 175.232 86.1686H174.803V83.8252H183.471V104.438C183.471 107.498 184.244 109.906 185.789 111.659C187.366 113.381 189.779 114.242 193.03 114.242C196.281 114.242 198.678 113.381 200.223 111.659C201.768 109.906 202.541 107.498 202.541 104.438V89.4993C202.541 87.6597 201.036 86.1686 199.178 86.1686H197.376V83.8252H206.052V103.768C206.052 107.977 204.91 111.229 202.624 113.524C200.338 115.82 196.926 116.968 192.388 116.968Z" fill="white"/>
<path d="M243.089 116.442V114.098H246.435C247.054 114.098 247.555 113.601 247.555 112.988V87.2789C247.555 86.6656 247.054 86.1686 246.435 86.1686H243.185V83.8252H256.802V86.1686H253.553C252.934 86.1686 252.432 86.6658 252.432 87.2789V112.988C252.432 113.601 252.934 114.098 253.553 114.098H256.898V116.442H243.089Z" fill="white"/>
<path d="M276.304 117.064C272.894 117.064 269.9 116.394 267.325 115.055C264.75 113.716 262.723 111.787 261.242 109.269C259.793 106.75 259.07 103.705 259.07 100.134C259.07 96.5631 259.793 93.5183 261.242 90.9994C262.723 88.4809 264.75 86.5519 267.325 85.2127C269.9 83.8736 272.894 83.2041 276.304 83.2041C279.716 83.2041 282.71 83.8736 285.285 85.2127C287.859 86.5519 289.871 88.4807 291.32 90.9994C292.8 93.5183 293.54 96.5631 293.54 100.134C293.54 103.705 292.8 106.75 291.32 109.269C289.871 111.787 287.859 113.716 285.285 115.055C282.71 116.394 279.716 117.064 276.304 117.064ZM276.304 114.577C278.719 114.577 280.81 114.003 282.582 112.855C284.351 111.676 285.719 110.018 286.685 107.882C287.651 105.713 288.133 103.131 288.133 100.134C288.133 97.137 287.651 94.5705 286.685 92.4343C285.719 90.2662 284.351 88.6085 282.582 87.4605C280.811 86.2807 278.719 85.6911 276.304 85.6911C273.89 85.6911 271.782 86.2807 269.98 87.4605C268.21 88.6085 266.842 90.2662 265.876 92.4343C264.911 94.5705 264.429 97.137 264.429 100.134C264.429 103.131 264.911 105.714 265.876 107.882C266.842 110.018 268.21 111.676 269.98 112.855C271.782 114.003 273.89 114.577 276.304 114.577Z" fill="white"/>
<path d="M318.079 83.8252V86.1686H319.836C321.693 86.1686 323.197 87.6598 323.197 89.4993V109.124L303.161 83.8252H294.858V86.1686H296.227C298.084 86.1686 299.59 87.6598 299.59 89.4993V114.098H294.762V116.442H307.604V114.098H305.704C303.846 114.098 302.341 112.607 302.341 110.767V90.2816L323.149 116.442H325.998V86.1686H330.99V83.8252H318.079Z" fill="white"/>
<path d="M211.543 73.0117L199.796 44.569C199.28 43.3174 198.05 42.4995 196.684 42.4995H195.417V40.1562L203.417 40.2057L204.204 42.4996L215.357 70.1423H213.716C217.289 61.4349 220.932 52.7526 224.437 44.0174C224.728 43.2893 224.187 42.4996 223.396 42.4996C222.273 42.4996 221.131 42.4996 220.042 42.4996L220.976 40.1562H229.008L228.102 42.4996L215.453 73.0117H211.543Z" fill="white"/>
<path d="M227.371 117.064C225.119 117.064 222.994 116.649 220.998 115.82C219.035 114.991 217.345 113.7 215.929 111.946C215.667 111.609 215.421 111.253 215.19 110.878C214.98 110.538 214.384 110.679 214.384 111.077V116.442H211.729V105.012H214.384C215.092 107.084 216.058 108.838 217.28 110.272C218.535 111.675 219.984 112.728 221.627 113.429C223.268 114.13 225.021 114.481 226.888 114.481C229.174 114.481 230.928 113.971 232.151 112.951C233.406 111.931 234.033 110.464 234.033 108.551C234.033 107.244 233.712 106.208 233.068 105.442C232.424 104.645 231.539 104.039 230.412 103.625C229.318 103.179 228.111 102.844 226.792 102.621L222.929 101.903C220.774 101.584 218.842 101.058 217.136 100.325C215.43 99.592 214.078 98.5877 213.08 97.3123C212.083 96.0051 211.584 94.3153 211.584 92.2429C211.584 90.1707 212.035 88.4809 212.936 87.1734C213.87 85.8343 215.156 84.846 216.799 84.2084C218.44 83.5708 220.307 83.252 222.399 83.252C224.523 83.252 226.502 83.6346 228.337 84.3998C230.172 85.1649 231.749 86.4084 233.068 88.1301C233.291 88.416 233.504 88.7172 233.703 89.0341C233.916 89.3718 234.516 89.2295 234.516 88.8313V83.8259H237.172V94.8255H234.516C233.584 91.7965 232.07 89.5328 229.978 88.0345C227.919 86.504 225.601 85.7387 223.027 85.7387C220.774 85.7387 219.019 86.2171 217.764 87.1734C216.509 88.13 215.881 89.5328 215.881 91.3821C215.881 92.5936 216.187 93.5819 216.799 94.3471C217.409 95.1126 218.231 95.7181 219.26 96.1645C220.29 96.579 221.482 96.9138 222.833 97.1688L226.647 97.8382C228.933 98.157 230.96 98.6833 232.73 99.4164C234.5 100.15 235.9 101.154 236.93 102.429C237.961 103.705 238.475 105.41 238.475 107.546C238.475 109.651 238.008 111.42 237.075 112.855C236.174 114.258 234.886 115.31 233.212 116.012C231.571 116.713 229.624 117.064 227.371 117.064Z" fill="white"/>
<path d="M280.018 47.6168C278.571 45.1938 276.542 43.3446 273.936 42.0692C271.328 40.7939 268.271 40.1562 264.763 40.1562H249.916V42.4996H252.78C253.398 42.4996 253.9 42.9967 253.9 43.6098V69.319C253.9 69.9323 253.398 70.4292 252.78 70.4292H249.819V72.7726H264.763C268.271 72.7726 271.328 72.135 273.936 70.8596C276.543 69.5844 278.571 67.7351 280.018 65.312C281.467 62.8569 282.191 59.9078 282.191 56.4645C282.191 52.9892 281.467 50.04 280.018 47.6168ZM275.336 63.7815C274.306 65.8221 272.841 67.4163 270.942 68.5641C269.043 69.68 266.839 70.2379 264.328 70.2379H258.728V42.6432H264.328C266.839 42.6432 269.043 43.2171 270.942 44.3647C272.841 45.4808 274.306 47.0748 275.336 49.1473C276.398 51.1878 276.928 53.6269 276.928 56.4645C276.928 59.2702 276.398 61.7092 275.336 63.7815Z" fill="white"/>
<path d="M141.592 69.9968V69.9405C141.592 68.6468 140.514 67.578 139.209 67.578C138.925 67.578 138.641 67.6343 138.386 67.7186C136.003 68.3936 133.79 68.6468 130.698 68.3375C128.315 67.7186 125.705 66.7906 123.436 65.553C123.407 65.553 122.159 64.8499 121.733 64.597C117.251 62.0094 112.967 59.5627 106.754 59.1407C110.329 56.5814 113.818 53.2346 116.996 48.8194C117.279 48.4256 117.194 47.8912 116.797 47.6099C116.4 47.3287 115.861 47.4412 115.577 47.8068C113.478 50.7318 111.265 53.1504 108.939 55.1752C107.719 55.7659 106.244 55.5689 104.201 55.316C102.981 55.1751 101.619 54.9783 100.031 54.9504C103.095 50.8442 104.74 44.207 105.875 39.6226C106.243 38.1319 106.584 36.8101 106.839 36.0508C107.776 35.1508 108.882 34.4758 109.96 33.8008C110.158 33.7165 110.329 33.6039 110.47 33.4352C110.953 32.957 111.123 32.254 110.924 31.6352C110.839 31.3541 110.697 31.1009 110.47 30.8759C110.47 30.8759 110.47 30.8759 110.442 30.8759C110.215 30.6508 109.96 30.5103 109.676 30.4259C109.052 30.2291 108.343 30.3978 107.861 30.8759C107.69 31.0165 107.577 31.2133 107.492 31.3822C106.783 32.5353 105.96 33.8008 104.91 34.7851C103.832 35.0664 102.045 35.3476 99.9455 35.6851C97.0518 36.1352 93.0801 36.782 88.4842 37.8226C87.0374 38.1319 85.7608 38.6663 84.5693 39.3412C84.1437 32.2258 80.4558 25.9541 76.6826 20.1043C74.5265 16.7575 73.1364 12.7638 72.3705 9.81075C72.1718 7.36398 72.4272 5.62027 73.0229 3.22973C73.108 2.97653 73.1648 2.69536 73.1648 2.41418C73.1648 1.1205 72.0868 0.0517578 70.7817 0.0517578C69.4768 0.0517578 68.3988 1.1205 68.3988 2.41418C68.3988 2.69536 68.4554 2.97667 68.5405 3.22973C69.1363 5.62027 69.3916 7.36398 69.1931 9.81075C68.4272 12.7919 67.0653 16.7575 64.9093 20.1043C61.1361 25.9541 57.4481 32.254 57.0227 39.3412C55.8595 38.6663 54.5544 38.1319 53.1076 37.8226C48.5117 36.782 44.54 36.1633 41.6463 35.6851C39.5471 35.3476 37.7598 35.0664 36.6818 34.7851C35.6321 33.8008 34.8093 32.5353 34.1001 31.3822C34.015 31.1852 33.9016 31.0165 33.7313 30.8759C33.2491 30.3978 32.5397 30.2291 31.9157 30.4259C31.632 30.5103 31.3766 30.6508 31.1497 30.8759C30.9227 31.1009 30.781 31.3541 30.6958 31.6352C30.4973 32.254 30.6674 32.957 31.1497 33.4352C31.2916 33.5758 31.4901 33.7165 31.6603 33.8008C32.7384 34.4477 33.8732 35.1508 34.7811 36.0508C35.0647 36.8101 35.3767 38.1319 35.7455 39.6226C36.8803 44.2068 38.5257 50.8441 41.5897 54.9504C40.0293 54.9783 38.6392 55.1751 37.4193 55.316C35.3767 55.5691 33.9016 55.7659 32.6817 55.1752C30.3554 53.1504 28.1142 50.7036 26.0432 47.8068C25.7595 47.4131 25.2205 47.3287 24.8233 47.6099C24.4262 47.8912 24.341 48.4254 24.6247 48.8194C27.7737 53.2346 31.2632 56.5816 34.8661 59.1407C28.6532 59.5627 24.3694 62.0094 19.8871 64.597C19.4615 64.8501 18.2133 65.553 18.1849 65.553C15.9154 66.7624 13.3054 67.6907 10.9224 68.3375C7.8302 68.6188 5.61728 68.3655 3.23434 67.7186C2.97903 67.6343 2.69534 67.578 2.41165 67.578C1.10672 67.578 0.0285645 68.6468 0.0285645 69.9405V70.0531C0.0285645 71.3468 1.10657 72.4155 2.41165 72.4155C2.69534 72.4155 2.97903 72.3593 3.23434 72.2749C5.61742 71.6 7.8302 71.3468 10.9224 71.6561C13.3055 72.2749 15.9155 73.2029 18.1849 74.4405C18.2133 74.4405 19.4615 75.1436 19.8871 75.3967C24.3694 77.984 28.6532 80.431 34.8661 80.8529C31.2916 83.4121 27.8021 86.7589 24.6247 91.1742C24.341 91.568 24.4262 92.1024 24.8233 92.3837C25.2205 92.665 25.7595 92.5524 26.0432 92.1867C28.1142 89.2618 30.3554 86.8431 32.6817 84.8183C33.9016 84.2277 35.3767 84.4246 37.4193 84.6775C38.6392 84.8183 40.0009 85.0152 41.5897 85.0432C38.5257 89.1493 36.8803 95.7866 35.7455 100.371C35.3767 101.862 35.0364 103.183 34.7811 103.943C33.8448 104.843 32.7384 105.518 31.6603 106.193C31.4617 106.277 31.2916 106.39 31.1497 106.558C30.6674 107.037 30.4973 107.739 30.6958 108.358C30.781 108.639 30.9227 108.893 31.1497 109.118C31.3766 109.343 31.632 109.483 31.9157 109.568C32.5397 109.764 33.2491 109.596 33.7313 109.118C33.8732 108.977 34.015 108.78 34.1001 108.611C34.8093 107.458 35.6321 106.193 36.6818 105.208C37.7598 104.927 39.5471 104.646 41.6463 104.308C44.54 103.858 48.5117 103.212 53.1076 102.171C54.5544 101.862 55.8311 101.327 57.0227 100.652C57.4481 107.768 61.1361 114.039 64.9093 119.889C67.0653 123.236 68.4552 127.229 69.1931 130.183C69.3916 132.629 69.1363 134.373 68.5405 136.764C68.4554 137.017 68.3988 137.298 68.3988 137.579C68.3988 138.873 69.4768 139.941 70.7817 139.941C72.0868 139.941 73.1648 138.873 73.1648 137.579C73.1648 137.298 73.108 137.017 73.0229 136.764C72.4272 134.373 72.1718 132.629 72.3705 130.183C73.1364 127.201 74.4981 123.236 76.6826 119.889C80.4557 114.039 84.1437 107.739 84.5693 100.652C85.7324 101.327 87.0374 101.862 88.4842 102.171C93.0801 103.211 97.0518 103.83 99.9455 104.308C102.045 104.646 103.832 104.927 104.91 105.208C105.96 106.193 106.783 107.458 107.492 108.611C107.577 108.808 107.69 108.977 107.861 109.118C108.343 109.596 109.052 109.764 109.676 109.568C109.96 109.483 110.215 109.343 110.442 109.118C110.442 109.118 110.442 109.118 110.47 109.118C110.499 109.118 110.47 109.118 110.499 109.118C110.726 108.893 110.868 108.639 110.953 108.358C111.123 107.739 110.981 107.037 110.499 106.558C110.329 106.418 110.158 106.277 109.988 106.193C108.91 105.546 107.775 104.843 106.868 103.943C106.584 103.183 106.272 101.862 105.903 100.371C104.768 95.7866 103.123 89.1493 100.059 85.0432C101.619 85.0152 103.009 84.8183 104.229 84.6775C106.272 84.4245 107.747 84.2277 108.967 84.8183C111.293 86.8431 113.535 89.2899 115.605 92.1867C115.889 92.5805 116.428 92.665 116.825 92.3837C117.222 92.1024 117.308 91.5681 117.024 91.1742C113.875 86.7589 110.386 83.412 106.783 80.8529C112.995 80.431 117.251 77.984 121.762 75.3967C122.187 75.1435 123.435 74.4405 123.464 74.4405C125.733 73.2311 128.343 72.3029 130.726 71.6561C133.819 71.3747 136.032 71.6281 138.415 72.2749C138.67 72.3593 138.954 72.4155 139.237 72.4155C140.542 72.4155 141.62 71.3468 141.62 70.0531L141.592 69.9968ZM120.684 66.0032C118.755 66.5094 117.194 67.0719 115.776 67.6063C113.847 68.2811 112.173 68.9 110.272 69.1251H106.641C104.031 68.9843 102.187 68.3937 99.8606 67.6063C98.0735 67.0157 96.0876 66.3406 93.2789 65.722C96.7968 64.6533 100.542 63.1345 104.258 60.8564C111.322 60.6877 115.889 63.2751 120.684 66.0032ZM80.002 69.9968C80.002 69.5468 79.9736 69.0968 79.8883 68.6468C86.2998 67.353 90.5838 66.9032 92.6546 67.353C95.3833 67.9543 97.3624 68.6084 99.1119 69.1869C99.1631 69.2037 99.2139 69.2204 99.2647 69.2374C100.087 69.5186 100.853 69.7718 101.619 69.9968C100.841 70.2172 100.118 70.4644 99.3148 70.7389C99.2981 70.7446 99.2814 70.7503 99.2647 70.756C99.2139 70.7729 99.1627 70.7896 99.1116 70.8067C97.3621 71.385 95.3832 72.0393 92.6546 72.6404C90.5836 73.0903 86.2998 72.6403 79.8883 71.3466C79.9736 70.8967 80.0305 70.4469 80.002 69.9968ZM103.974 57.0878C104.797 57.2003 105.591 57.2847 106.357 57.3409C105.478 58.0159 104.57 58.6066 103.69 59.169C103.549 59.2533 103.407 59.3659 103.237 59.4503C95.6902 64.0345 88.0305 65.4126 82.6404 66.3689C81.4772 66.5938 80.4274 66.7625 79.4913 66.9595C79.4062 66.7344 79.321 66.5094 79.2076 66.2845C79.5197 66.0594 80.2857 65.5532 80.3139 65.5532C83.2361 63.6126 87.7184 60.744 91.2363 58.8878C93.0517 57.9315 94.6122 57.2284 95.5483 57.0597C96.4846 56.891 97.3639 56.8065 98.1867 56.7784C100.485 56.6378 102.385 56.8909 103.974 57.0878ZM86.8674 82.2309C86.8106 81.6403 86.5837 80.9652 86.13 80.1495C87.5199 80.9934 88.9668 81.8088 90.3002 82.5121C91.3213 83.8339 92.6833 85.887 93.7329 88.5589C94.1018 89.4869 94.4137 90.3868 94.6974 91.2588C95.0946 92.4401 95.4918 93.5932 95.9741 94.6899C94.8677 94.2119 93.6761 93.8181 92.4846 93.4526C91.5768 93.1714 90.6692 92.862 89.733 92.5244C86.13 91.1743 84.0875 89.5715 82.839 88.559C82.3284 87.3216 81.7328 86.0559 80.9667 84.6497C81.9312 85.2122 82.754 85.4654 83.4066 85.5497C84.4562 85.6903 85.4208 85.4371 86.0733 84.8465L86.1301 84.7903C86.4985 84.4246 87.0375 83.6089 86.8674 82.2309ZM55.6326 84.8183L55.6893 84.8746C56.3419 85.4652 57.3065 85.7183 58.3561 85.5777C59.0369 85.4934 59.8597 85.2402 60.7958 84.6777C60.0299 86.0558 59.4057 87.3495 58.9235 88.587C57.6752 89.5995 55.6326 91.2025 52.0297 92.5525C51.0935 92.8899 50.1574 93.1994 49.2779 93.4805C48.0864 93.8743 46.8949 94.2401 45.7885 94.7181C46.2991 93.6213 46.6679 92.4682 47.065 91.287C47.3487 90.415 47.6608 89.515 48.0296 88.5868C49.0793 85.915 50.4695 83.862 51.4623 82.5402C52.7957 81.837 54.2141 81.0214 55.6326 80.1776C55.1787 80.9933 54.9518 81.6964 54.895 82.2589C54.7249 83.6089 55.2923 84.4246 55.6326 84.8183ZM54.895 57.7347C54.9518 58.3253 55.1787 59.0003 55.6326 59.8158C54.2425 58.9721 52.7957 58.1566 51.4623 57.4534C50.4411 56.1316 49.0793 54.0786 48.0296 51.4067C47.6608 50.4786 47.3487 49.5787 47.065 48.7066C46.6679 47.5255 46.2707 46.3724 45.7885 45.2754C46.8949 45.7536 48.0864 46.1473 49.2779 46.513C50.1856 46.7942 51.0935 47.1036 52.0297 47.441C55.6326 48.7911 57.6752 50.3941 58.9235 51.4066C59.4341 52.644 60.0299 53.9096 60.7958 55.3159C59.8314 54.7533 59.0087 54.5002 58.3561 54.4158C57.3065 54.2753 56.3419 54.5283 55.6893 55.1189L55.6326 55.1752C55.2923 55.541 54.7249 56.3567 54.895 57.7347ZM86.1298 55.1472L86.0731 55.0909C85.4205 54.5003 84.4559 54.2471 83.4063 54.3877C82.7255 54.4721 81.9025 54.7254 80.9664 55.2878C81.7325 53.9096 82.3281 52.6159 82.8387 51.3785C84.087 50.3659 86.1297 48.763 89.7327 47.4129C90.6689 47.0755 91.605 46.7661 92.4843 46.4849C93.676 46.0913 94.8674 45.7254 95.9738 45.2473C95.4632 46.3442 95.0943 47.4973 94.6971 48.6786C94.4134 49.5505 94.1015 50.4504 93.7326 51.3786C92.683 54.0505 91.2928 56.1036 90.2999 57.4253C88.9665 58.1285 87.5481 58.944 86.1297 59.7877C86.5834 58.9723 86.8103 58.2692 86.8671 57.7066C87.0375 56.3567 86.4985 55.541 86.1298 55.1472ZM70.8954 77.3092C66.5265 77.3092 63.491 73.7373 63.491 69.9687C63.491 66.2283 66.4982 62.6282 70.8954 62.6282C75.2645 62.6282 78.2998 66.2 78.2998 69.9687C78.2714 73.7373 75.2643 77.3092 70.8954 77.3092ZM72.0018 79.6998C74.1862 83.4402 75.094 84.987 75.094 88.8119C75.094 92.6931 73.9025 94.9993 72.5408 97.6712C72.399 97.9242 72.2853 98.1773 72.1436 98.4586C71.6328 99.4992 71.2073 100.709 70.8669 101.834C70.5548 100.709 70.1293 99.4994 69.5903 98.4586C69.4484 98.2055 69.3347 97.9242 69.1929 97.6712C67.8312 94.9993 66.6397 92.6931 66.6397 88.8119C66.6397 84.9871 67.5475 83.4402 69.7319 79.6998C69.8739 79.4747 69.9872 79.2497 70.1292 78.9964C70.3561 79.0245 70.583 79.0247 70.8383 79.0247C71.0938 79.0247 71.2923 79.0245 71.5192 78.9964C71.7181 79.2497 71.86 79.4747 72.0018 79.6998ZM76.3423 62.7409C76.5409 62.4033 76.7394 62.122 76.9665 61.8127L76.9949 61.7847C76.9949 61.7566 77.0231 61.7566 77.0231 61.7284C77.0231 61.7284 77.0231 61.7284 77.0231 61.7004C80.3708 57.0036 82.697 56.2161 83.6331 56.1036C84.3708 56.0193 84.768 56.2442 84.8814 56.3568C85.0231 56.5255 85.2218 56.891 85.1367 57.538C84.9948 58.6066 84.0304 60.8002 79.3494 64.1189C79.0373 64.3438 78.697 64.5689 78.3282 64.822C77.7892 64.0064 77.1083 63.3032 76.3423 62.7409ZM81.3637 50.4504C81.3353 50.5349 81.3069 50.5912 81.2786 50.6755C80.1723 53.4599 78.3849 56.5535 75.6332 60.6877C75.6332 60.6877 75.6332 60.7157 75.6048 60.7157C75.3495 61.0814 75.1226 61.4469 74.8672 61.8408C74.4135 61.6159 73.931 61.4189 73.4204 61.2783C73.4488 61.222 73.4773 61.1657 73.5055 61.1377C74.8105 58.8878 75.7467 57.3128 76.2857 55.5129C76.2857 55.4847 76.3141 55.4847 76.3141 55.4566C77.1652 52.9535 78.073 50.6755 79.0659 48.6504C79.0659 48.6224 79.0941 48.5941 79.0941 48.566V48.538C80.2005 46.3443 81.449 44.4599 82.8958 42.9976C82.7821 45.6412 82.3281 47.9193 81.3637 50.4504ZM71.9734 60.2658C71.8316 60.4909 71.7181 60.7157 71.5763 60.9689C71.3492 60.9408 71.1223 60.9408 70.867 60.9408C70.6115 60.9408 70.4132 60.9408 70.1578 60.9689C70.0159 60.7157 69.8742 60.4909 69.7605 60.2658C67.5762 56.5254 66.6682 54.9785 66.6682 51.1535C66.6682 47.2723 67.8599 44.9661 69.2215 42.2943C69.3632 42.0412 69.4768 41.788 69.6186 41.5068C70.1577 40.4662 70.5548 39.2569 70.8952 38.1319C71.2073 39.2569 71.6328 40.4662 72.1719 41.5068C72.3139 41.7599 72.4274 42.0412 72.5692 42.2943C73.9309 44.9661 75.1224 47.2723 75.1224 51.1535C75.094 54.9785 74.1862 56.5254 71.9734 60.2658ZM68.2854 61.1377C68.3136 61.194 68.3422 61.2502 68.3705 61.2783C67.8599 61.4189 67.3774 61.6159 66.9237 61.8408C66.6682 61.447 66.4131 61.0814 66.1575 60.7157C66.1575 60.7157 66.1576 60.6877 66.1294 60.6877C63.3774 56.5535 61.5903 53.4599 60.4837 50.6755C60.4554 50.6193 60.4271 50.5348 60.3987 50.4786C59.4057 47.9474 58.9803 45.6694 58.8384 42.9976C60.3136 44.4599 61.5335 46.3443 62.6399 48.538C62.6399 48.538 62.6399 48.538 62.6399 48.566C62.6683 48.5941 62.6683 48.6224 62.6967 48.6504C63.6897 50.6473 64.5974 52.9535 65.4485 55.4566C65.4485 55.4846 65.4484 55.4846 65.4768 55.5129C66.0442 57.3128 66.9805 58.8878 68.2854 61.1377ZM56.8809 56.3285C56.9944 56.2159 57.3915 55.991 58.1292 56.0753C59.0369 56.1878 61.3916 57.0035 64.7391 61.6721C64.7391 61.6721 64.7391 61.6721 64.7391 61.7002C64.7391 61.7282 64.7675 61.7282 64.7675 61.7565L64.7958 61.7846C64.9946 62.0658 65.2214 62.375 65.4201 62.6845C64.654 63.247 63.9732 63.9503 63.4058 64.7378C63.0652 64.5127 62.7251 64.2877 62.3846 64.0345C57.7036 60.7158 56.7391 58.5221 56.5972 57.4535C56.5404 56.8628 56.7391 56.4972 56.8809 56.3285ZM63.4058 75.1717C63.9732 75.9592 64.654 76.6622 65.4201 77.2247C65.1931 77.5342 64.9946 77.8434 64.7958 78.1248L64.7675 78.1527C64.7675 78.1808 64.7391 78.1808 64.7391 78.209C64.7391 78.209 64.7391 78.209 64.7391 78.2371C61.3916 82.9338 59.0653 83.7214 58.1292 83.8339C57.3915 83.9182 56.9944 83.6931 56.8809 83.5807C56.7391 83.412 56.5404 83.0463 56.5972 82.3994C56.7391 81.3307 57.7036 79.1373 62.3846 75.8186C62.7251 75.6499 63.0654 75.3968 63.4058 75.1717ZM60.4271 89.5151C60.4555 89.4306 60.4837 89.3744 60.5121 89.2901C61.6185 86.5057 63.4058 83.4121 66.1576 79.278C66.1576 79.278 66.1578 79.2499 66.186 79.2499C66.4415 78.8842 66.6684 78.5187 66.9521 78.1249C67.4059 78.3497 67.8882 78.5468 68.3989 78.6874C68.3707 78.7436 68.3421 78.7999 68.3138 78.828C67.009 81.0778 66.0726 82.6529 65.5336 84.4529C65.5336 84.4808 65.5052 84.4809 65.5052 84.5091C64.6541 87.0121 63.7464 89.2901 62.7534 91.3152C62.7534 91.3433 62.7252 91.3716 62.6967 91.3996V91.4277C61.5904 93.6213 60.342 95.5057 58.8953 96.9681C58.9803 94.3243 59.4341 92.0463 60.4271 89.5151ZM64.2853 92.0463C64.5407 91.54 64.7677 91.0338 65.0228 90.4994C65.3065 93.8179 66.4697 96.0679 67.6612 98.4303C67.8031 98.6835 67.9167 98.9366 68.0586 99.2178C69.2218 101.524 69.8743 104.871 70.0161 106.136C70.0728 106.586 70.4417 106.896 70.8672 106.896C71.2928 106.896 71.6897 106.558 71.7182 106.136C71.8602 104.871 72.5126 101.524 73.6757 99.2178C73.8176 98.9647 73.931 98.7115 74.0729 98.4303C75.2929 96.0679 76.4278 93.8179 76.7115 90.4994C76.9382 91.0336 77.1937 91.5399 77.4489 92.0463C78.3283 96.2086 78.0446 100.09 76.5695 104.28C75.5198 107.233 74.1865 109.286 73.0233 111.115C72.2006 112.408 71.4063 113.618 70.8673 114.939C70.2999 113.618 69.5338 112.408 68.7113 111.115C67.5481 109.286 66.2147 107.205 65.1651 104.28C63.6895 100.09 63.4058 96.2086 64.2853 92.0463ZM76.2854 84.5371C76.2854 84.5091 76.2854 84.5091 76.2572 84.4809C75.7182 82.6809 74.7819 81.0778 73.477 78.8559C73.4486 78.7997 73.4201 78.7435 73.3919 78.7154C73.9025 78.5748 74.3849 78.3778 74.8387 78.1529C75.094 78.5467 75.3493 78.9123 75.5763 79.278C75.5763 79.278 75.5763 79.306 75.6045 79.306C78.3564 83.4402 80.1436 86.5338 81.2501 89.3182C81.2784 89.3744 81.3067 89.4588 81.335 89.5151C82.328 92.0463 82.7536 94.3243 82.8955 96.9961C81.4203 95.5338 80.2003 93.6494 79.0938 91.4557C79.0938 91.4557 79.0938 91.4557 79.0938 91.4277C79.0656 91.3996 79.0656 91.3715 79.0656 91.3433C78.0445 89.3463 77.165 87.0682 76.2854 84.5371ZM84.8815 83.637C84.768 83.7497 84.3709 83.9746 83.6332 83.8902C82.7254 83.7778 80.371 82.9621 77.0233 78.2935C77.0233 78.2935 77.0233 78.2935 77.0233 78.2655C77.0233 78.2374 76.995 78.2374 76.995 78.2091L76.9666 78.1811C76.768 77.9 76.541 77.5905 76.3425 77.2811C77.1084 76.7186 77.7893 76.0154 78.3567 75.228C78.6972 75.4529 79.0373 75.678 79.378 75.931C84.059 79.2497 85.0234 81.4435 85.1652 82.5121C85.222 83.1027 85.0233 83.4683 84.8815 83.637ZM104.201 39.2851C102.981 44.1789 101.166 51.5192 97.7329 55.0628C96.9385 55.1191 96.1441 55.2036 95.2648 55.3441C94.7542 55.4285 94.1018 55.6253 93.3925 55.9348C94.0732 54.8098 94.7542 53.488 95.3498 51.9973C95.7186 51.041 96.0307 50.113 96.3429 49.2128C97.194 46.7381 97.9032 44.5723 99.6621 42.8286C99.7189 42.7724 104.513 38.0476 104.513 38.0476C104.428 38.4696 104.315 38.8632 104.201 39.2851ZM84.7112 41.4789C85.9595 40.6069 87.3497 39.9882 88.9668 39.6227C93.5058 38.6102 97.279 37.9915 100.315 37.5133C101.392 37.3446 102.329 37.204 103.123 37.0633L98.4422 41.6757C96.7116 43.3913 94.4987 44.0944 91.9738 44.91C91.066 45.1912 90.1017 45.5007 89.1371 45.8662C86.8674 46.71 85.1368 47.6942 83.832 48.5662C84.4277 46.2881 84.6546 44.0381 84.7112 41.4789ZM71.7465 13.5515C71.8315 13.7764 71.9165 14.0296 72.0018 14.2827C72.8245 16.5608 73.9025 18.9794 75.2926 21.145C79.1225 27.1073 82.8673 33.5197 82.9524 40.6351C81.7041 41.6195 80.6261 42.8288 79.6615 44.1789C79.775 41.1694 79.2926 38.1602 78.2146 35.1228C77.119 32.0312 75.7451 29.8775 74.5339 27.9787C74.5219 27.9601 74.5101 27.9415 74.4983 27.923C72.9665 25.5325 71.7466 23.6199 71.7466 20.7513V13.5515H71.7465ZM73.0514 28.8511C74.2146 30.6791 75.5482 32.7604 76.5976 35.6853C78.0729 39.8758 78.3566 43.7569 77.4771 47.9193C77.2218 48.4256 76.9949 48.9318 76.7396 49.4662C76.4557 46.1475 75.2926 43.8975 74.1012 41.5351C73.9593 41.2821 73.8457 41.0289 73.7038 40.7477C72.5408 38.4415 71.8882 35.0947 71.7465 33.8291C71.6896 33.3791 71.3209 33.0696 70.8952 33.0696C70.4696 33.0696 70.0727 33.4072 70.0442 33.8291C69.9022 35.0947 69.2499 38.4415 68.0867 40.7477C67.9448 41.0007 67.8314 41.2539 67.6895 41.5351C66.4695 43.8975 65.3348 46.1475 65.0511 49.4662C64.8242 48.9318 64.5687 48.4256 64.3135 47.9193C63.4341 43.7569 63.7178 39.8758 65.193 35.6853C66.2426 32.7322 67.5761 30.6791 68.7391 28.8511C69.5618 27.5574 70.3561 26.348 70.8951 25.0262C71.4344 26.348 72.2287 27.5574 73.0514 28.8511ZM66.4697 21.145C67.8599 18.9794 68.9663 16.5608 69.7606 14.2827C69.8458 14.0295 69.9308 13.8046 70.0161 13.5515V20.7513C70.0161 23.629 68.812 25.5076 67.2945 27.8759C67.2844 27.8916 67.2743 27.9072 67.2643 27.923C67.2525 27.9415 67.2406 27.9601 67.2287 27.9787C66.0176 29.8775 64.6435 32.0312 63.548 35.1228C62.47 38.1602 61.9877 41.1694 62.1011 44.1789C61.1364 42.8288 60.0584 41.6195 58.8101 40.6351C58.8951 33.5197 62.6399 27.1073 66.4697 21.145ZM41.4763 37.4852C44.5118 37.9634 48.2849 38.5821 52.824 39.5946C54.4128 39.9601 55.8313 40.5788 57.0794 41.4508C57.1078 44.0381 57.3631 46.26 57.9589 48.5099C56.654 47.6381 54.9518 46.682 52.6539 45.8099C51.6609 45.4444 50.7248 45.135 49.8169 44.8538C47.2921 44.0381 45.0792 43.335 43.3488 41.6195L38.6678 37.0071C39.4621 37.1759 40.3983 37.3165 41.4763 37.4852ZM37.5614 39.2851C37.4478 38.8632 37.3628 38.4415 37.2493 38.0758C37.2493 38.0758 42.0437 42.8007 42.1005 42.8569C43.831 44.5725 44.5685 46.7381 45.4196 49.2411C45.7317 50.1412 46.0438 51.0692 46.4126 52.0254C47.0084 53.5162 47.6892 54.8379 48.3701 55.963C47.6325 55.6536 47.0084 55.4568 46.4976 55.3724C45.6183 55.2318 44.7955 55.1192 44.0295 55.0911C40.5968 51.5192 38.7811 44.1789 37.5614 39.2851ZM37.7883 57.0878C39.4053 56.8909 41.2778 56.6378 43.5473 56.7503C44.37 56.8065 45.2495 56.8909 46.1857 57.0316C47.1218 57.2002 48.6822 57.8753 50.4977 58.8595C54.0156 60.7157 58.4979 63.5845 61.42 65.525C61.4484 65.525 62.2143 66.0593 62.5264 66.2562C62.4128 66.4812 62.3278 66.6781 62.2427 66.9312C61.3066 66.7342 60.2568 66.5376 59.0937 66.3406C53.7035 65.3845 46.0438 64.0064 38.4975 59.422C38.3557 59.3378 38.2138 59.2535 38.0436 59.1407C37.1358 58.5782 36.2563 57.9876 35.3768 57.3128C36.1713 57.3128 36.9656 57.2003 37.7883 57.0878ZM61.7604 69.9968C61.7604 70.4467 61.7888 70.8967 61.874 71.3468C55.4624 72.6404 51.1786 73.0905 49.1076 72.6406C46.3791 72.0394 44.4003 71.3853 42.6508 70.8068C42.5995 70.7898 42.5485 70.7731 42.4977 70.7562C41.7032 70.475 40.9089 70.2218 40.143 69.9968C40.9373 69.7719 41.7032 69.5186 42.4977 69.2374C42.5484 69.2206 42.5994 69.2039 42.6505 69.1867C44.4 68.6084 46.3789 67.9541 49.1076 67.353C51.1786 66.9032 55.4624 67.353 61.874 68.6468C61.7888 69.0687 61.7604 69.5187 61.7604 69.9968ZM37.5046 60.8564C41.221 63.1345 44.9658 64.6533 48.4835 65.722C45.7033 66.3407 43.6891 67.0157 41.9019 67.6063C39.5756 68.3937 37.7315 69.0125 35.1215 69.1251H31.4903C29.5896 68.9 27.9442 68.2811 25.9866 67.6063C24.5681 67.1001 22.9795 66.5376 21.0504 66.0032C25.8732 63.2751 30.4407 60.6877 37.5046 60.8564ZM18.8942 72.7249C17.5042 71.9936 16.0005 71.3747 14.4969 70.8405C13.5324 70.5031 12.5678 70.2216 11.66 69.9687C12.5678 69.7155 13.5324 69.4344 14.4969 69.0968C16.0004 68.5624 17.504 67.9439 18.8942 67.2125C21.561 67.8314 23.6036 68.5345 25.4192 69.1813C26.1853 69.4625 26.9228 69.7154 27.6321 69.9406C26.9228 70.1656 26.1853 70.4469 25.4192 70.7001C23.6036 71.403 21.561 72.1062 18.8942 72.7249ZM21.0788 73.9624C23.0079 73.4561 24.5681 72.8936 26.0149 72.3594C27.944 71.6845 29.618 71.0657 31.5187 70.8407H35.1499C37.7599 70.9814 39.604 71.572 41.9302 72.3594C43.7175 72.9499 45.7033 73.625 48.5119 74.2436C44.9942 75.3125 41.2494 76.8312 37.533 79.1093C30.469 79.2779 25.8732 76.6905 21.0788 73.9624ZM37.7883 82.8777C36.9656 82.7653 36.1713 82.6809 35.4052 82.6247C36.2847 81.9497 37.1925 81.3591 38.072 80.7966C38.2138 80.7123 38.3557 80.5997 38.5258 80.5153C46.0722 75.931 53.7319 74.553 59.1221 73.5969C60.2852 73.3719 61.3348 73.2031 62.2711 73.0063C62.3562 73.2313 62.4414 73.4561 62.5548 73.6811C62.2428 73.9062 61.4767 74.4124 61.4485 74.4124C58.5264 76.3529 54.0441 79.2216 50.5263 81.0778C48.7107 82.0341 47.1503 82.7373 46.2141 82.9059C45.278 83.0746 44.3985 83.1591 43.5758 83.1872C41.2778 83.3278 39.4053 83.0745 37.7883 82.8777ZM37.5614 100.68C38.7811 95.7867 40.5968 88.4464 44.0295 84.9028C44.8239 84.8464 45.6183 84.762 46.4976 84.6214C47.0084 84.5371 47.6325 84.3403 48.3701 84.031C47.6892 85.156 47.0084 86.4776 46.4126 87.9684C46.0438 88.9245 45.7033 89.8527 45.4196 90.7527C44.5685 93.2276 43.8594 95.3932 42.1005 97.1369C42.0437 97.1933 37.2493 101.918 37.2493 101.918C37.3628 101.496 37.4478 101.102 37.5614 100.68ZM57.0794 98.4867C55.8313 99.3585 54.4412 99.9774 52.824 100.343C48.2849 101.355 44.5118 101.974 41.4763 102.452C40.3983 102.621 39.4621 102.761 38.6678 102.902L43.3488 98.2897C45.0792 96.5742 47.2921 95.8711 49.8169 95.0554C50.7248 94.7742 51.6893 94.4649 52.6539 94.0993C54.9234 93.2555 56.654 92.2712 57.9589 91.3993C57.3631 93.6775 57.1078 95.9275 57.0794 98.4867ZM70.0159 126.414C69.9308 126.189 69.8458 125.936 69.7605 125.683C68.9379 123.405 67.8599 120.986 66.4695 118.821C62.6398 112.858 58.895 106.446 58.8098 99.3305C60.0581 98.3463 61.1361 97.1369 62.1008 95.7869C61.9872 98.7963 62.4697 101.806 63.5478 104.843C64.6432 107.935 66.0173 110.088 67.2285 111.987C67.2403 112.006 67.2522 112.024 67.264 112.043C68.7959 114.433 70.0158 116.346 70.0158 119.215V126.414H70.0159ZM75.3209 118.821C73.9309 120.986 72.8245 123.405 72.0302 125.683C71.945 125.936 71.86 126.161 71.7747 126.414V119.214C71.7747 116.337 72.9787 114.458 74.4963 112.09C74.5064 112.074 74.5164 112.058 74.5265 112.043C74.5383 112.024 74.5501 112.005 74.5621 111.987C75.7732 110.088 77.1471 107.934 78.2427 104.843C79.3207 101.806 79.8033 98.7961 79.6896 95.7867C80.6542 97.1368 81.7322 98.3463 82.9805 99.3304C82.8957 106.446 79.1509 112.858 75.3209 118.821ZM100.286 102.452C97.2506 101.974 93.4775 101.356 88.9384 100.343C87.3496 99.9775 85.931 99.3586 84.683 98.4869C84.6546 95.8993 84.3993 93.6775 83.775 91.4277C85.0799 92.2995 86.8104 93.2556 89.0801 94.1275C90.0731 94.4932 91.0092 94.8026 91.9169 95.0838C94.4418 95.8993 96.6547 96.6026 98.3851 98.3182L103.066 102.931C102.3 102.79 101.364 102.649 100.286 102.452ZM104.201 100.68C104.315 101.102 104.4 101.524 104.513 101.89C104.513 101.89 99.7187 97.1649 99.6621 97.1088C97.9315 95.3932 97.194 93.2276 96.3429 90.7245C96.0308 89.8244 95.7186 88.8964 95.3498 87.9401C94.7542 86.4495 94.0732 85.1277 93.3925 84.0027C94.1299 84.3121 94.7542 84.509 95.2648 84.5933C96.1441 84.7339 96.9671 84.8465 97.7329 84.8746C101.166 88.4464 102.981 95.7867 104.201 100.68ZM103.974 82.8777C102.357 83.0747 100.485 83.3278 98.2151 83.2154C97.3924 83.1592 96.5128 83.0747 95.5766 82.9341C94.6405 82.7654 93.0801 82.0903 91.2644 81.1061C87.7467 79.2499 83.2645 76.3812 80.3423 74.4407C80.3139 74.4407 79.548 73.9063 79.236 73.7093C79.3209 73.4844 79.4346 73.2876 79.5197 73.0344C80.4558 73.2313 81.5056 73.4282 82.6687 73.625C88.0589 74.5813 95.7185 75.9593 103.265 80.5436C103.407 80.6279 103.548 80.7123 103.719 80.8249C104.627 81.3874 105.506 81.978 106.385 82.6529C105.619 82.6528 104.825 82.7653 103.974 82.8777ZM104.258 79.1092C100.541 76.8311 96.7965 75.3123 93.2786 74.2434C96.0591 73.6247 98.0733 72.9497 99.8603 72.3593C102.187 71.5718 104.031 70.953 106.641 70.8405H110.272C112.173 71.0656 113.818 71.6843 115.776 72.3593C117.194 72.8655 118.783 73.428 120.683 73.9622C115.889 76.6905 111.322 79.2779 104.258 79.1092ZM127.294 70.8405C125.79 71.3747 124.287 71.9936 122.897 72.7249C120.202 72.1061 118.187 71.403 116.371 70.7562C115.606 70.475 114.868 70.2218 114.13 69.9968C114.868 69.7719 115.577 69.4906 116.343 69.2374C116.405 69.2153 116.468 69.193 116.53 69.1708C118.297 68.5406 120.265 67.839 122.868 67.2686C124.258 67.9998 125.762 68.6188 127.265 69.153C128.23 69.4906 129.195 69.7719 130.102 70.0248C129.195 70.2218 128.23 70.5312 127.294 70.8405Z" fill="white"/>
</g>
<defs>
<clipPath id="clip0_2002_1519">
<rect width="331" height="140" fill="white"/>
</clipPath>
</defs>
</svg>
