<svg width="171" height="171" viewBox="0 0 171 171" fill="none" xmlns="http://www.w3.org/2000/svg">
<g clip-path="url(#clip0_230_6382)">
<path d="M170.691 85.5953V85.5267C170.691 83.9474 169.392 82.6429 167.818 82.6429C167.476 82.6429 167.134 82.7115 166.826 82.8145C163.953 83.6386 161.285 83.9474 157.556 83.5697C154.683 82.8145 151.536 81.6814 148.799 80.171C148.765 80.171 147.26 79.3128 146.747 79.004C141.342 75.8457 136.177 72.8588 128.686 72.3439C132.996 69.2199 137.203 65.1345 141.035 59.7447C141.377 59.2642 141.274 58.6119 140.795 58.2685C140.316 57.9252 139.666 58.0625 139.324 58.5087C136.793 62.0792 134.125 65.0316 131.32 67.5035C129.849 68.2241 128.07 67.984 125.607 67.6749C124.137 67.5035 122.495 67.2629 120.579 67.2288C124.273 62.2164 126.257 54.1144 127.626 48.5187C128.07 46.6992 128.481 45.0857 128.789 44.1587C129.917 43.0601 131.252 42.2362 132.551 41.4123C132.791 41.3094 132.996 41.1719 133.167 40.966C133.749 40.3823 133.954 39.5241 133.714 38.7689C133.612 38.4256 133.441 38.1165 133.167 37.8419C133.167 37.8419 133.167 37.8419 133.133 37.8419C132.859 37.5673 132.551 37.3956 132.209 37.2927C131.457 37.0523 130.601 37.2583 130.02 37.8419C129.815 38.0136 129.678 38.2538 129.575 38.4599C128.72 39.8675 127.728 41.4123 126.462 42.6138C125.163 42.9571 123.008 43.3005 120.476 43.7124C116.987 44.2616 112.198 45.0514 106.657 46.3215C104.912 46.6992 103.373 47.3515 101.936 48.1754C101.423 39.4898 96.9764 31.834 92.4267 24.6933C89.8269 20.608 88.151 15.7333 87.2273 12.1283C86.9878 9.14157 87.2958 7.01321 88.014 4.09509C88.1167 3.78608 88.185 3.44295 88.185 3.09963C88.185 1.52047 86.8853 0.21582 85.3117 0.21582C83.7385 0.21582 82.4386 1.52028 82.4386 3.09963C82.4386 3.44295 82.507 3.78627 82.6096 4.09509C83.3278 7.01321 83.6357 9.14176 83.3963 12.1283C82.4728 15.7674 80.8309 20.608 78.2311 24.6933C73.6816 31.834 69.2347 39.5241 68.7217 48.1754C67.3193 47.3515 65.7456 46.6992 64.001 46.3215C58.4596 45.0514 53.6707 44.2961 50.1816 43.7124C47.6503 43.3005 45.4952 42.9571 44.1953 42.6138C42.9298 41.4123 41.9377 39.8675 41.0825 38.4599C40.98 38.2195 40.8432 38.0136 40.638 37.8419C40.0563 37.2583 39.2011 37.0523 38.4487 37.2927C38.1067 37.3956 37.7987 37.5673 37.525 37.8419C37.2515 38.1165 37.0805 38.4256 36.9778 38.7689C36.7383 39.5241 36.9435 40.3823 37.525 40.966C37.6962 41.1376 37.9357 41.3094 38.1409 41.4123C39.4406 42.2019 40.809 43.0601 41.9035 44.1587C42.2457 45.0857 42.6219 46.6992 43.0666 48.5187C44.4348 54.1146 46.4189 62.2164 50.1132 67.2288C48.2318 67.2631 46.5556 67.5035 45.0847 67.6749C42.6219 67.984 40.8432 68.2241 39.3723 67.5035C36.5673 65.0316 33.865 62.0449 31.3679 58.5087C31.0259 58.028 30.3759 57.925 29.897 58.2685C29.418 58.612 29.3155 59.2642 29.6575 59.7447C33.4545 65.1345 37.662 69.2199 42.0062 72.3439C34.5149 72.8588 29.3497 75.8457 23.9451 79.004C23.4319 79.313 21.9268 80.171 21.8927 80.171C19.1561 81.6473 16.0091 82.7802 13.1358 83.5697C9.40726 83.9131 6.73917 83.6042 3.86565 82.8145C3.5577 82.7115 3.2157 82.6429 2.8737 82.6429C1.2999 82.6429 0 83.9474 0 85.5267V85.6638C0 87.2431 1.2999 88.5478 2.87333 88.5478C3.21533 88.5478 3.55733 88.4793 3.86528 88.3762C6.7386 87.5521 9.40688 87.2431 13.1354 87.6209C16.0087 88.3762 19.1558 89.5089 21.8923 91.0193C21.9264 91.0193 23.4315 91.8777 23.9447 92.1865C29.3494 95.3452 34.5145 98.3319 42.0058 98.8466C37.6958 101.971 33.4883 106.056 29.6571 111.446C29.3151 111.927 29.4176 112.579 29.8966 112.922C30.3755 113.265 31.0255 113.128 31.3675 112.682C33.8646 109.111 36.5669 106.159 39.372 103.687C40.8429 102.966 42.6215 103.207 45.0844 103.516C46.5553 103.687 48.1972 103.928 50.1128 103.962C46.4185 108.974 44.4344 117.076 43.0662 122.672C42.6215 124.492 42.211 126.105 41.9031 127.032C40.7744 128.13 39.4402 128.954 38.1405 129.778C37.9011 129.881 37.6958 130.019 37.5246 130.224C36.9431 130.808 36.7379 131.666 36.9774 132.422C37.0801 132.765 37.2511 133.074 37.5246 133.348C37.7983 133.623 38.1063 133.795 38.4483 133.898C39.2008 134.138 40.056 133.932 40.6376 133.348C40.8086 133.177 40.9796 132.936 41.0821 132.731C41.9373 131.323 42.9295 129.778 44.1949 128.577C45.4948 128.234 47.6499 127.89 50.1813 127.478C53.6703 126.929 58.4592 126.139 64.0007 124.869C65.7453 124.492 67.2846 123.839 68.7213 123.015C69.2343 131.701 73.6813 139.356 78.2307 146.497C80.8305 150.583 82.5067 155.457 83.3959 159.062C83.6354 162.049 83.3276 164.177 82.6092 167.095C82.5067 167.404 82.4382 167.748 82.4382 168.091C82.4382 169.67 83.7381 170.974 85.3113 170.974C86.8849 170.974 88.1846 169.67 88.1846 168.091C88.1846 167.748 88.1164 167.404 88.0136 167.095C87.2956 164.177 86.9875 162.049 87.2269 159.062C88.1504 155.423 89.7925 150.582 92.4263 146.497C96.976 139.356 101.423 131.667 101.936 123.015C103.338 123.839 104.912 124.492 106.656 124.869C112.198 126.139 116.987 126.895 120.476 127.478C123.007 127.89 125.162 128.234 126.462 128.577C127.728 129.778 128.72 131.323 129.575 132.731C129.677 132.971 129.814 133.177 130.019 133.348C130.601 133.932 131.456 134.138 132.209 133.898C132.551 133.795 132.859 133.623 133.132 133.348C133.132 133.348 133.132 133.348 133.167 133.348C133.201 133.348 133.167 133.348 133.201 133.348C133.475 133.074 133.646 132.765 133.748 132.422C133.954 131.666 133.782 130.808 133.201 130.224C132.996 130.053 132.79 129.881 132.585 129.778C131.285 128.989 129.917 128.13 128.822 127.032C128.481 126.105 128.104 124.492 127.66 122.672C126.291 117.076 124.307 108.974 120.613 103.962C122.494 103.927 124.17 103.687 125.641 103.516C128.104 103.207 129.883 102.966 131.354 103.687C134.159 106.159 136.861 109.146 139.358 112.682C139.7 113.162 140.35 113.265 140.829 112.922C141.308 112.579 141.41 111.927 141.068 111.446C137.271 106.056 133.064 101.971 128.72 98.8466C136.211 98.3319 141.342 95.3452 146.781 92.1865C147.294 91.8775 148.799 91.0193 148.833 91.0193C151.57 89.5431 154.717 88.4103 157.59 87.6209C161.318 87.2774 163.987 87.5863 166.86 88.3762C167.168 88.4793 167.51 88.5478 167.852 88.5478C169.425 88.5478 170.725 87.2431 170.725 85.6638L170.691 85.5953ZM145.481 80.7204C143.155 81.3383 141.274 82.0249 139.564 82.6772C137.238 83.5011 135.219 84.2564 132.927 84.5311H128.549C125.402 84.3595 123.179 83.6387 120.374 82.6772C118.219 81.9563 115.824 81.1326 112.438 80.3771C116.679 79.0725 121.195 77.2186 125.676 74.4379C134.193 74.2319 139.7 77.3904 145.481 80.7204ZM96.429 85.5953C96.429 85.046 96.3945 84.4968 96.2918 83.9474C104.023 82.3682 109.188 81.819 111.685 82.3682C114.975 83.1022 117.361 83.9008 119.471 84.6067C119.533 84.6272 119.594 84.648 119.655 84.6683C120.647 85.0115 121.571 85.3207 122.494 85.5953C121.556 85.8644 120.683 86.1664 119.716 86.5011C119.695 86.508 119.675 86.515 119.655 86.522C119.594 86.5425 119.532 86.5633 119.47 86.5838C117.361 87.2897 114.975 88.0883 111.685 88.8219C109.188 89.3713 104.023 88.8219 96.2918 87.2429C96.3945 86.6941 96.463 86.1447 96.429 85.5953ZM125.333 69.8377C126.325 69.975 127.283 70.0777 128.207 70.1467C127.146 70.9706 126.052 71.6916 124.991 72.3782C124.82 72.4811 124.649 72.6184 124.444 72.7213C115.345 78.3172 106.109 79.9995 99.6097 81.1667C98.2074 81.4414 96.9416 81.6473 95.8129 81.8876C95.7102 81.6129 95.6076 81.3383 95.4707 81.0638C95.8469 80.7891 96.7706 80.171 96.805 80.171C100.328 77.8025 105.733 74.3007 109.975 72.0349C112.164 70.8677 114.045 70.0095 115.174 69.8034C116.303 69.5973 117.363 69.4944 118.355 69.4603C121.126 69.2883 123.418 69.5973 125.333 69.8377ZM104.707 100.529C104.638 99.8083 104.365 98.9842 103.817 97.9884C105.493 99.0184 107.238 100.014 108.846 100.872C110.077 102.486 111.719 104.992 112.985 108.253C113.429 109.386 113.806 110.485 114.148 111.549C114.627 112.991 115.106 114.398 115.687 115.737C114.353 115.154 112.916 114.673 111.48 114.226C110.385 113.883 109.291 113.506 108.162 113.094C103.817 111.446 101.354 109.489 99.8493 108.253C99.2336 106.742 98.5154 105.198 97.5917 103.481C98.7547 104.168 99.7468 104.477 100.534 104.579C101.799 104.751 102.962 104.442 103.749 103.721L103.817 103.653C104.262 103.207 104.912 102.211 104.707 100.529ZM67.0452 103.688L67.1135 103.756C67.9004 104.477 69.0633 104.786 70.329 104.614C71.1499 104.511 72.1419 104.202 73.2708 103.516C72.3471 105.198 71.5946 106.777 71.0132 108.288C69.508 109.524 67.0452 111.481 62.7009 113.128C61.572 113.541 60.4431 113.918 59.3827 114.262C57.946 114.742 56.5094 115.188 55.1754 115.772C55.7911 114.433 56.2359 113.026 56.7146 111.584C57.0568 110.519 57.433 109.421 57.8778 108.288C59.1434 105.027 60.8196 102.521 62.0168 100.907C63.6244 100.049 65.3348 99.0534 67.0452 98.0235C66.4977 99.0188 66.2242 99.8771 66.1557 100.564C65.9505 102.211 66.6347 103.207 67.0452 103.688ZM66.1557 70.6273C66.2242 71.3482 66.4977 72.1721 67.0452 73.168C65.369 72.138 63.6244 71.1424 62.0168 70.2842C60.7853 68.6705 59.1434 66.1643 57.8778 62.9031C57.433 61.7702 57.0568 60.6716 56.7146 59.6073C56.2359 58.1658 55.7569 56.7582 55.1754 55.4192C56.5094 56.0029 57.946 56.4835 59.3827 56.9298C60.4774 57.2729 61.572 57.6505 62.7009 58.0626C67.0452 59.7106 69.508 61.6674 71.0132 62.9032C71.6289 64.4138 72.3471 65.9586 73.2708 67.6752C72.1076 66.9886 71.1157 66.6798 70.329 66.5768C69.0633 66.4053 67.9004 66.7141 67.1135 67.435L67.0452 67.5038C66.6347 67.9495 65.9505 68.945 66.1557 70.6273ZM103.817 67.4688L103.749 67.4002C102.962 66.6794 101.799 66.3702 100.534 66.542C99.7128 66.6449 98.7206 66.9541 97.5917 67.6405C98.5154 65.9583 99.2336 64.3791 99.8493 62.8686C101.354 61.6325 103.817 59.6757 108.162 58.0278C109.291 57.6158 110.42 57.2382 111.48 56.8949C112.917 56.4143 114.353 55.968 115.687 55.3843C115.072 56.7233 114.627 58.1309 114.148 59.5726C113.806 60.6371 113.43 61.7355 112.985 62.8684C111.719 66.1298 110.043 68.636 108.846 70.2493C107.238 71.1075 105.528 72.1031 103.817 73.1331C104.365 72.1376 104.638 71.2792 104.707 70.5926C104.912 68.945 104.262 67.9495 103.817 67.4688ZM85.4485 94.5213C80.1808 94.5213 76.5205 90.1614 76.5205 85.561C76.5205 80.9951 80.1463 76.601 85.4485 76.601C90.7164 76.601 94.3766 80.9608 94.3766 85.561C94.3421 90.1614 90.7164 94.5213 85.4485 94.5213ZM86.7824 97.439C89.4163 102.005 90.5109 103.893 90.5109 108.562C90.5109 113.3 89.0741 116.115 87.4324 119.376C87.2614 119.685 87.1244 119.994 86.9534 120.338C86.3377 121.608 85.8247 123.084 85.414 124.458C85.0376 123.084 84.5246 121.608 83.8746 120.338C83.7037 120.029 83.5667 119.685 83.3957 119.376C81.7536 116.115 80.3171 113.3 80.3171 108.562C80.3171 103.893 81.4118 102.005 84.0457 97.439C84.2167 97.1647 84.3536 96.89 84.5246 96.581C84.7983 96.6153 85.0718 96.6153 85.3798 96.6153C85.6876 96.6153 85.927 96.6153 86.2007 96.581C86.4404 96.89 86.6114 97.1647 86.7824 97.439ZM92.0163 76.738C92.2555 76.3261 92.4952 75.9828 92.7687 75.6051L92.803 75.5708C92.803 75.5363 92.8372 75.5363 92.8372 75.5022C92.8372 75.5022 92.8372 75.5022 92.8372 75.4677C96.8737 69.7346 99.6785 68.7732 100.807 68.6362C101.697 68.5331 102.176 68.8077 102.312 68.945C102.484 69.1511 102.723 69.5973 102.62 70.3869C102.45 71.6916 101.286 74.3693 95.6421 78.4201C95.2658 78.6946 94.8553 78.9693 94.4106 79.2785C93.7605 78.2829 92.9397 77.4247 92.0163 76.738ZM98.0707 61.7357C98.0364 61.8386 98.0022 61.9074 97.9679 62.0104C96.634 65.409 94.4789 69.1856 91.1609 74.232C91.1609 74.232 91.1609 74.2665 91.1264 74.2665C90.8187 74.7126 90.545 75.1589 90.237 75.6395C89.6898 75.3648 89.1083 75.1248 88.4926 74.9528C88.527 74.8842 88.5609 74.8154 88.5951 74.7812C90.1687 72.0349 91.2974 70.1122 91.9474 67.9152C91.9474 67.8807 91.9816 67.8809 91.9816 67.8464C93.0078 64.791 94.1025 62.0104 95.2999 59.5387C95.2999 59.5042 95.3341 59.4701 95.3341 59.4357V59.4012C96.6682 56.7235 98.1732 54.4234 99.9178 52.6382C99.781 55.8651 99.2336 58.646 98.0707 61.7357ZM86.7484 73.717C86.5774 73.9917 86.4404 74.2664 86.2692 74.5752C85.9959 74.5407 85.7222 74.5407 85.4142 74.5407C85.1063 74.5407 84.867 74.5407 84.559 74.5752C84.388 74.2664 84.217 73.9917 84.0801 73.717C81.4462 69.1509 80.3516 67.2629 80.3516 62.5939C80.3516 57.8564 81.7884 55.041 83.4301 51.78C83.6011 51.4709 83.7383 51.1619 83.9091 50.8186C84.559 49.5485 85.0378 48.0723 85.4485 46.699C85.8249 48.0723 86.3379 49.5485 86.9878 50.8186C87.1588 51.1276 87.296 51.4709 87.4668 51.78C89.1089 55.0412 90.5453 57.8564 90.5453 62.5939C90.5111 67.2629 89.4163 69.1511 86.7484 73.717ZM82.3012 74.7812C82.3357 74.8499 82.3697 74.9187 82.4039 74.9528C81.7884 75.1246 81.2069 75.3648 80.6595 75.6395C80.3516 75.1589 80.0438 74.7126 79.736 74.2665C79.736 74.2665 79.736 74.232 79.7018 74.232C76.3838 69.1854 74.2287 65.409 72.8945 62.0104C72.8603 61.9419 72.8261 61.8386 72.7918 61.7702C71.5946 58.6803 71.0815 55.8998 70.9104 52.6384C72.6893 54.4236 74.1602 56.7235 75.4941 59.4014C75.4941 59.4014 75.4941 59.4014 75.4941 59.4359C75.5284 59.4702 75.5284 59.5044 75.5626 59.5389C76.7598 61.9764 77.8545 64.7912 78.8807 67.8466C78.8807 67.8813 78.8807 67.8811 78.9149 67.9154C79.5991 70.1122 80.7278 72.0349 82.3012 74.7812ZM68.5503 68.9107C68.6871 68.7732 69.166 68.4986 70.0553 68.6015C71.1499 68.7389 73.989 69.7348 78.0255 75.4334C78.0255 75.4334 78.0255 75.4334 78.0255 75.4677C78.0255 75.5022 78.0597 75.5022 78.0597 75.5363L78.094 75.5708C78.3334 75.914 78.607 76.2916 78.8464 76.6692C77.923 77.356 77.102 78.2141 76.4178 79.1754C76.0073 78.9007 75.5969 78.6262 75.1864 78.317C69.5423 74.2664 68.3791 71.5884 68.2081 70.284C68.1398 69.563 68.3791 69.1168 68.5503 68.9107ZM76.4178 91.9124C77.102 92.8735 77.923 93.7317 78.8464 94.4182C78.5727 94.796 78.3334 95.1734 78.094 95.5169L78.0597 95.5512C78.0597 95.5855 78.0255 95.5856 78.0255 95.6201C78.0255 95.6201 78.0255 95.6197 78.0255 95.6544C73.989 101.387 71.1842 102.349 70.0553 102.486C69.166 102.589 68.6871 102.314 68.5503 102.177C68.3791 101.971 68.1398 101.525 68.2081 100.735C68.3791 99.4305 69.5423 96.7528 75.1864 92.7019C75.5969 92.4955 76.0075 92.1867 76.4178 91.9124ZM72.8261 109.421C72.8603 109.318 72.8945 109.249 72.9288 109.146C74.2627 105.748 76.4178 101.971 79.7359 96.9243C79.7359 96.9243 79.7358 96.89 79.7701 96.89C80.078 96.4438 80.3516 95.9975 80.6936 95.5169C81.241 95.7916 81.8225 96.0316 82.4382 96.2034C82.4038 96.2722 82.3697 96.341 82.3355 96.3753C80.762 99.1215 79.6331 101.044 78.9832 103.241C78.9832 103.276 78.9491 103.276 78.9491 103.31C77.923 106.365 76.8283 109.146 75.6309 111.618C75.6309 111.652 75.5969 111.686 75.5626 111.721V111.755C74.2285 114.433 72.7233 116.733 70.9789 118.518C71.0814 115.291 71.6291 112.51 72.8261 109.421ZM77.4782 112.51C77.786 111.893 78.0597 111.275 78.3675 110.622C78.7097 114.673 80.1121 117.42 81.5488 120.303C81.7198 120.612 81.8569 120.921 82.0277 121.265C83.4301 124.08 84.217 128.165 84.388 129.71C84.4563 130.259 84.9012 130.637 85.4142 130.637C85.9272 130.637 86.4062 130.225 86.4404 129.71C86.6114 128.165 87.3983 124.08 88.8007 121.265C88.9715 120.956 89.1087 120.647 89.2797 120.303C90.7504 117.42 92.1188 114.673 92.4608 110.622C92.7343 111.275 93.0424 111.892 93.3502 112.51C94.4106 117.591 94.0684 122.329 92.29 127.444C91.0241 131.049 89.4165 133.555 88.014 135.787C87.0223 137.366 86.0642 138.842 85.4144 140.455C84.7302 138.842 83.8066 137.366 82.8148 135.787C81.4124 133.555 79.8045 131.014 78.539 127.444C76.76 122.329 76.4178 117.591 77.4782 112.51ZM91.9476 103.344C91.9476 103.31 91.9476 103.31 91.9134 103.275C91.2636 101.078 90.1347 99.1215 88.5613 96.4094C88.527 96.3406 88.4928 96.272 88.4585 96.2375C89.0741 96.0663 89.6557 95.8257 90.203 95.5511C90.5109 96.0316 90.8187 96.4779 91.0924 96.9241C91.0924 96.9241 91.0924 96.9584 91.1266 96.9584C94.4447 102.005 96.6 105.782 97.9339 109.18C97.9681 109.249 98.0022 109.352 98.0366 109.42C99.2336 112.51 99.747 115.291 99.918 118.553C98.1391 116.767 96.6684 114.467 95.3343 111.789C95.3343 111.789 95.3343 111.789 95.3343 111.755C95.3001 111.721 95.3 111.686 95.3 111.652C94.0684 109.215 93.008 106.434 91.9476 103.344ZM102.312 102.245C102.175 102.383 101.697 102.658 100.807 102.555C99.7128 102.417 96.8735 101.421 92.837 95.7228C92.837 95.7228 92.837 95.7228 92.837 95.6885C92.837 95.6542 92.8028 95.6542 92.8028 95.6201L92.7685 95.5854C92.5291 95.2422 92.2553 94.8648 92.0161 94.487C92.9395 93.8001 93.7603 92.9419 94.4445 91.9808C94.8551 92.2555 95.2654 92.5298 95.6761 92.8392C101.32 96.89 102.483 99.5677 102.654 100.872C102.723 101.593 102.483 102.04 102.312 102.245ZM125.607 48.1066C124.136 54.0801 121.947 63.0401 117.808 67.3658C116.85 67.4345 115.892 67.5376 114.832 67.7092C114.216 67.8121 113.43 68.0523 112.574 68.4301C113.395 67.0568 114.216 65.4432 114.935 63.6238C115.379 62.4566 115.756 61.3237 116.132 60.2251C117.158 57.2043 118.013 54.5606 120.134 52.4321C120.202 52.3635 125.983 46.596 125.983 46.596C125.881 47.1109 125.744 47.5915 125.607 48.1066ZM102.107 50.7843C103.612 49.72 105.288 48.9648 107.238 48.5185C112.711 47.2827 117.26 46.5274 120.921 45.9437C122.22 45.7376 123.349 45.5661 124.307 45.3945L118.663 51.0247C116.576 53.1187 113.908 53.9769 110.864 54.9726C109.769 55.3159 108.606 55.6935 107.443 56.1398C104.707 57.1698 102.62 58.3713 101.047 59.4356C101.765 56.6549 102.039 53.9083 102.107 50.7843ZM86.4746 16.6942C86.5774 16.9689 86.6801 17.2779 86.7826 17.5869C87.7745 20.3678 89.0744 23.32 90.7506 25.9635C95.3685 33.2414 99.8838 41.0688 99.9867 49.7544C98.4813 50.9559 97.1816 52.4321 96.0185 54.0801C96.1554 50.4067 95.574 46.7333 94.274 43.0256C92.9529 39.2519 91.2963 36.623 89.8356 34.305C89.8215 34.2823 89.8072 34.2597 89.7929 34.2371C87.9455 31.319 86.4746 28.9845 86.4746 25.4827V16.6942ZM88.0483 35.37C89.4505 37.6015 91.0585 40.1418 92.324 43.7122C94.1029 48.8275 94.4447 53.565 93.3844 58.646C93.0767 59.264 92.803 59.8818 92.4952 60.5341C92.153 56.4833 90.7506 53.7367 89.3139 50.8529C89.1429 50.5439 89.006 50.2349 88.835 49.8918C87.4325 47.0766 86.6458 42.9913 86.4746 41.4464C86.4064 40.8972 85.9615 40.5196 85.4485 40.5196C84.9355 40.5196 84.4565 40.9315 84.4223 41.4464C84.2513 42.9913 83.4646 47.0766 82.0621 49.8918C81.8911 50.2006 81.754 50.5096 81.5832 50.8529C80.1123 53.7367 78.7441 56.4831 78.4019 60.5341C78.1284 59.8818 77.8204 59.2642 77.5125 58.646C76.4522 53.565 76.7942 48.8275 78.5729 43.7122C79.8386 40.1075 81.4464 37.6015 82.8488 35.37C83.8408 33.7908 84.7987 32.3146 85.4485 30.701C86.0984 32.3146 87.0561 33.7908 88.0483 35.37ZM80.1121 25.9635C81.7882 23.32 83.1224 20.3676 84.0801 17.5869C84.1826 17.2779 84.2853 17.0032 84.388 16.6942V25.4827C84.388 28.9957 82.9363 31.2886 81.1065 34.1796C81.0943 34.1988 81.0822 34.2179 81.07 34.2371C81.0559 34.2597 81.0418 34.2823 81.0273 34.305C79.5665 36.623 77.9102 39.2519 76.589 43.0256C75.2891 46.7333 74.7076 50.4067 74.8444 54.0801C73.6814 52.4321 72.3815 50.9559 70.8764 49.7544C70.9791 41.0688 75.4943 33.2414 80.1121 25.9635ZM49.976 45.9094C53.6361 46.4929 58.1855 47.2482 63.6587 48.4842C65.5743 48.9305 67.2846 49.6857 68.7896 50.75C68.8238 53.9083 69.1318 56.6204 69.85 59.3669C68.2766 58.3025 66.2242 57.1354 63.4534 56.0712C62.2562 55.6249 61.1273 55.2473 60.0327 54.904C56.9883 53.9083 54.3202 53.0501 52.2336 50.9559L46.5895 45.3257C47.5472 45.5318 48.6761 45.7033 49.976 45.9094ZM45.2554 48.1066C45.1186 47.5915 45.0161 47.0766 44.8791 46.6303C44.8791 46.6303 50.66 52.3978 50.7285 52.4664C52.8151 54.5606 53.7045 57.2041 54.7307 60.2593C55.107 61.3578 55.4832 62.4909 55.9279 63.658C56.6463 65.4775 57.4673 67.091 58.2882 68.4642C57.3988 68.0866 56.6463 67.8462 56.0306 67.7433C54.9702 67.5717 53.9781 67.4343 53.0546 67.4C48.9156 63.0403 46.7263 54.0801 45.2554 48.1066ZM45.5291 69.8377C47.4789 69.5973 49.7365 69.2883 52.4731 69.4256C53.4651 69.4942 54.5255 69.5971 55.6542 69.7689C56.7831 69.9748 58.6645 70.7987 60.8538 72.0004C65.0953 74.2664 70.5 77.7678 74.0232 80.1365C74.0575 80.1365 74.9812 80.7889 75.3574 81.0291C75.2204 81.3036 75.1179 81.5439 75.0152 81.853C73.8865 81.6128 72.6206 81.3724 71.2184 81.1322C64.7191 79.965 55.4832 78.2827 46.3843 72.6866C46.2133 72.5837 46.0423 72.4808 45.837 72.3435C44.7424 71.6569 43.6819 70.9361 42.6215 70.112C43.5792 70.1122 44.5371 69.975 45.5291 69.8377ZM74.4337 85.5953C74.4337 86.1447 74.468 86.6941 74.5707 87.2431C66.8399 88.8221 61.6748 89.3715 59.1777 88.8221C55.8875 88.0885 53.5016 87.2899 51.3922 86.584C51.3303 86.5635 51.2688 86.5427 51.2074 86.5222C50.2495 86.179 49.2918 85.87 48.3682 85.5953C49.3261 85.3207 50.2495 85.0115 51.2074 84.6683C51.2686 84.648 51.3301 84.6272 51.3918 84.6067C53.5012 83.9006 55.8873 83.102 59.1777 82.3682C61.6748 81.819 66.8399 82.3682 74.5707 83.9474C74.468 84.4624 74.4337 85.0117 74.4337 85.5953ZM45.1873 74.4379C49.6683 77.2186 54.1837 79.0725 58.4252 80.3771C55.0729 81.1326 52.6443 81.9563 50.4892 82.6772C47.6844 83.6387 45.4608 84.3938 42.3139 84.5311H37.9355C35.6436 84.2564 33.6595 83.5011 31.2992 82.6772C29.589 82.0594 27.6734 81.3726 25.3473 80.7204C31.1623 77.3904 36.6696 74.2319 45.1873 74.4379ZM22.7473 88.9256C21.0712 88.0327 19.2583 87.2774 17.4454 86.6253C16.2822 86.2132 15.1193 85.87 14.0246 85.561C15.1193 85.252 16.2822 84.9087 17.4454 84.4968C19.2583 83.8444 21.0712 83.0892 22.7473 82.1966C25.9628 82.9519 28.4257 83.8101 30.615 84.5997C31.5385 84.943 32.4279 85.252 33.2831 85.5267C32.4279 85.8012 31.5385 86.1447 30.615 86.4537C28.4257 87.3116 25.9628 88.17 22.7473 88.9256ZM25.3814 90.4361C27.7075 89.8179 29.5888 89.1315 31.3333 88.479C33.6593 87.6553 35.6775 86.9 37.9693 86.6253H42.3478C45.4948 86.7969 47.7184 87.5178 50.5233 88.479C52.6783 89.1999 55.0727 90.024 58.4592 90.7793C54.2175 92.0839 49.7023 93.9376 45.2213 96.7185C36.7037 96.9243 31.1623 93.766 25.3814 90.4361ZM45.5291 101.319C44.5371 101.181 43.5792 101.078 42.6558 101.01C43.7162 100.186 44.8107 99.4646 45.8711 98.7782C46.0423 98.675 46.2133 98.5378 46.4185 98.4347C55.5174 92.839 64.7533 91.1569 71.2526 89.9893C72.6551 89.715 73.9207 89.5087 75.0494 89.2687C75.1521 89.5431 75.2547 89.8177 75.3916 90.0924C75.0154 90.3671 74.0917 90.985 74.0575 90.985C70.5342 93.3537 65.1296 96.8557 60.8879 99.1213C58.6987 100.289 56.8173 101.147 55.6884 101.353C54.5597 101.559 53.4993 101.662 52.5074 101.696C49.7365 101.868 47.4789 101.559 45.5291 101.319ZM45.2554 123.05C46.7263 117.076 48.9156 108.116 53.0546 103.79C54.0123 103.722 54.9702 103.619 56.0306 103.447C56.6463 103.344 57.3988 103.104 58.2882 102.726C57.4673 104.099 56.6463 105.713 55.9279 107.532C55.4832 108.7 55.0727 109.833 54.7307 110.931C53.7045 113.952 52.8493 116.596 50.7285 118.724C50.66 118.793 44.8791 124.56 44.8791 124.56C45.0161 124.045 45.1186 123.565 45.2554 123.05ZM68.7896 120.372C67.2846 121.436 65.6085 122.191 63.6587 122.638C58.1855 123.874 53.6361 124.629 49.976 125.213C48.6761 125.419 47.5472 125.59 46.5895 125.762L52.2336 120.132C54.3202 118.038 56.9883 117.179 60.0327 116.184C61.1273 115.841 62.2905 115.463 63.4534 115.017C66.19 113.987 68.2766 112.785 69.85 111.721C69.1318 114.501 68.824 117.248 68.7896 120.372ZM84.388 154.462C84.2853 154.187 84.1826 153.878 84.0801 153.569C83.0883 150.789 81.7882 147.837 80.1121 145.193C75.4941 137.915 70.9789 130.087 70.8762 121.402C72.3813 120.2 73.6812 118.724 74.8442 117.076C74.7074 120.75 75.2889 124.423 76.5888 128.131C77.91 131.905 79.5665 134.534 81.0271 136.852C81.0414 136.874 81.0555 136.897 81.0698 136.919C82.9171 139.838 84.388 142.172 84.388 145.674V154.462ZM90.7848 145.193C89.1087 147.836 87.7745 150.789 86.8166 153.569C86.7139 153.878 86.6114 154.153 86.5087 154.462V145.673C86.5087 142.161 87.9604 139.868 89.7904 136.977C89.8023 136.957 89.8147 136.938 89.8265 136.919C89.8408 136.897 89.8551 136.874 89.8696 136.851C91.3302 134.533 92.9866 131.904 94.3079 128.131C95.6078 124.423 96.1893 120.75 96.0523 117.076C97.2155 118.724 98.5154 120.2 100.021 121.402C99.918 130.087 95.4028 137.915 90.7848 145.193ZM120.886 125.213C117.226 124.629 112.677 123.874 107.204 122.638C105.288 122.192 103.578 121.436 102.073 120.372C102.039 117.214 101.731 114.501 100.978 111.755C102.552 112.819 104.638 113.987 107.375 115.051C108.572 115.497 109.701 115.875 110.796 116.218C113.84 117.214 116.508 118.072 118.595 120.166L124.239 125.796C123.315 125.624 122.187 125.453 120.886 125.213ZM125.607 123.05C125.744 123.565 125.847 124.08 125.983 124.526C125.983 124.526 120.202 118.758 120.134 118.69C118.047 116.596 117.158 113.952 116.132 110.897C115.756 109.798 115.379 108.665 114.935 107.498C114.216 105.679 113.395 104.065 112.574 102.692C113.464 103.069 114.216 103.31 114.832 103.413C115.892 103.584 116.884 103.722 117.808 103.756C121.947 108.116 124.136 117.076 125.607 123.05ZM125.333 101.319C123.384 101.559 121.126 101.868 118.389 101.731C117.398 101.662 116.337 101.559 115.208 101.387C114.08 101.181 112.198 100.357 110.009 99.1558C105.767 96.89 100.363 93.3886 96.8392 91.0195C96.805 91.0195 95.8813 90.3673 95.5051 90.1273C95.6078 89.8526 95.7444 89.6122 95.8473 89.3032C96.976 89.5432 98.2417 89.7838 99.6441 90.0242C106.143 91.1914 115.379 92.8735 124.478 98.4695C124.649 98.5723 124.82 98.6754 125.025 98.8127C126.12 99.4995 127.181 100.22 128.241 101.044C127.317 101.044 126.36 101.181 125.333 101.319ZM125.675 96.7185C121.194 93.9376 116.679 92.0839 112.437 90.7793C115.79 90.024 118.218 89.1999 120.373 88.479C123.178 87.5178 125.402 86.7626 128.549 86.6253H132.927C135.219 86.9 137.203 87.6553 139.563 88.479C141.274 89.0968 143.189 89.7836 145.481 90.4361C139.7 93.766 134.193 96.9243 125.675 96.7185ZM153.452 86.6253C151.638 87.2774 149.826 88.0327 148.149 88.9256C144.9 88.17 142.471 87.3116 140.282 86.5222C139.358 86.179 138.469 85.87 137.58 85.5953C138.469 85.3207 139.324 84.9773 140.248 84.6683C140.323 84.6412 140.398 84.6142 140.473 84.5869C142.604 83.8179 144.977 82.9613 148.115 82.2653C149.791 83.1576 151.604 83.9131 153.417 84.5654C154.581 84.9773 155.743 85.3206 156.838 85.6297C155.743 85.87 154.58 86.2479 153.452 86.6253Z" fill="#231F20"/>
<path d="M80.1122 25.9636C81.7883 23.3202 83.1224 20.3677 84.0801 17.587C84.1827 17.278 84.2854 17.0033 84.3881 16.6943V25.4828C84.3881 28.9958 82.9364 31.2887 81.1066 34.1797L81.0701 34.2372L81.0274 34.3051C79.5666 36.6231 77.9102 39.252 76.5891 43.0257C75.2892 46.7334 74.7077 50.4068 74.8445 54.0802C73.6815 52.4322 72.3816 50.956 70.8765 49.7545C70.9792 41.0689 75.4944 33.2416 80.1122 25.9636Z" fill="#FFCC2C"/>
<path d="M86.4746 16.6943C86.5773 16.969 86.68 17.278 86.7826 17.587C87.7745 20.3679 89.0744 23.3202 90.7506 25.9636C95.3685 33.2416 99.8837 41.0689 99.9866 49.7545C98.4813 50.956 97.1816 52.4322 96.0184 54.0802C96.1554 50.4068 95.5739 46.7334 94.274 43.0257C92.9529 39.252 91.2963 36.6231 89.8355 34.3051L89.7928 34.2372C87.9455 31.3191 86.4746 28.9847 86.4746 25.4828V16.6943Z" fill="#6D3092"/>
<path d="M66.1558 70.6275C66.2243 71.3485 66.4978 72.1723 67.0453 73.1682C65.3691 72.1382 63.6245 71.1426 62.0169 70.2844C60.7854 68.6707 59.1435 66.1645 57.8779 62.9033C57.4331 61.7704 57.0569 60.6718 56.7147 59.6075C56.236 58.166 55.757 56.7584 55.1755 55.4194C56.5095 56.0031 57.9461 56.4837 59.3828 56.93C60.4775 57.2731 61.5721 57.6507 62.701 58.0629C67.0453 59.7108 69.5081 61.6676 71.0133 62.9035C71.629 64.414 72.3472 65.9588 73.2709 67.6754C72.1077 66.9888 71.1158 66.68 70.3291 66.577C69.0634 66.4055 67.9005 66.7143 67.1136 67.4352L67.0453 67.5041C66.6348 67.9498 65.9506 68.9452 66.1558 70.6275Z" fill="#6D3092"/>
<path d="M103.817 67.4687L103.749 67.4001C102.962 66.6793 101.799 66.3701 100.534 66.5419C99.7128 66.6448 98.7207 66.954 97.5918 67.6405C98.5155 65.9582 99.2337 64.379 99.8494 62.8685C101.355 61.6325 103.817 59.6757 108.162 58.0277C109.291 57.6158 110.42 57.2381 111.48 56.8948C112.917 56.4142 114.353 55.968 115.687 55.3843C115.072 56.7232 114.627 58.1308 114.148 59.5726C113.806 60.637 113.43 61.7354 112.985 62.8683C111.719 66.1297 110.043 68.6359 108.846 70.2492C107.238 71.1074 105.528 72.1031 103.817 73.133C104.365 72.1376 104.638 71.2792 104.707 70.5925C104.912 68.9449 104.262 67.9495 103.817 67.4687Z" fill="#FFCB2B"/>
<path d="M74.4337 85.5953C74.4337 86.1447 74.468 86.6941 74.5707 87.2431C66.8399 88.822 61.6747 89.3714 59.1777 88.822C55.8875 88.0885 53.5016 87.2898 51.3922 86.584L51.2074 86.5221C50.2495 86.179 49.2918 85.87 48.3682 85.5953C49.3261 85.3206 50.2495 85.0114 51.2074 84.6683L51.3918 84.6066C53.5012 83.9006 55.8873 83.1019 59.1777 82.3682C61.6747 81.819 66.8399 82.3682 74.5707 83.9473C74.468 84.4624 74.4337 85.0116 74.4337 85.5953Z" fill="#FFCB2B"/>
<path d="M96.4289 85.5953C96.4289 85.0459 96.3945 84.4967 96.2917 83.9473C104.022 82.3682 109.188 81.819 111.685 82.3682C114.975 83.1021 117.361 83.9008 119.471 84.6066L119.655 84.6683C120.647 85.0114 121.571 85.3206 122.494 85.5953C121.556 85.8643 120.683 86.1664 119.716 86.501L119.655 86.5219L119.47 86.5838C117.361 87.2896 114.975 88.0883 111.685 88.8219C109.188 89.3712 104.022 88.8219 96.2917 87.2429C96.3945 86.6941 96.4629 86.1447 96.4289 85.5953Z" fill="#6D3092"/>
<path d="M22.7474 88.9257C21.0712 88.0328 19.2583 87.2776 17.4454 86.6254C16.2823 86.2133 15.1193 85.8702 14.0247 85.5612C15.1193 85.2522 16.2823 84.9088 17.4454 84.4969C19.2583 83.8446 21.0712 83.0893 22.7474 82.1968C25.9629 82.952 28.4257 83.8102 30.615 84.5998C31.5385 84.9431 32.4279 85.2522 33.2831 85.5268C32.4279 85.8014 31.5385 86.1449 30.615 86.4539C28.4257 87.3117 25.9629 88.1701 22.7474 88.9257Z" fill="#6D3092"/>
<path d="M153.452 86.6257C151.638 87.2778 149.826 88.0331 148.149 88.926C144.9 88.1703 142.471 87.3119 140.282 86.5225C139.358 86.1794 138.469 85.8704 137.58 85.5957C138.469 85.321 139.324 84.9777 140.248 84.6687L140.473 84.5872C142.604 83.8182 144.977 82.9617 148.115 82.2656C149.791 83.158 151.604 83.9134 153.417 84.5657C154.581 84.9777 155.743 85.321 156.838 85.63C155.743 85.8704 154.58 86.2482 153.452 86.6257Z" fill="#FFCB2B"/>
<path d="M67.045 103.688L67.1133 103.756C67.9002 104.477 69.0632 104.786 70.3288 104.614C71.1498 104.511 72.1417 104.202 73.2706 103.516C72.347 105.198 71.5945 106.777 71.013 108.288C69.5079 109.524 67.045 111.481 62.7008 113.128C61.5719 113.541 60.443 113.918 59.3826 114.261C57.9459 114.742 56.5092 115.188 55.1753 115.772C55.791 114.433 56.2357 113.026 56.7145 111.584C57.0567 110.519 57.4329 109.421 57.8776 108.288C59.1433 105.027 60.8194 102.521 62.0166 100.907C63.6243 100.049 65.3347 99.0534 67.045 98.0234C66.4976 99.0187 66.2241 99.8771 66.1556 100.564C65.9504 102.211 66.6346 103.207 67.045 103.688Z" fill="#FFCB2B"/>
<path d="M104.707 100.529C104.639 99.8082 104.365 98.9841 103.817 97.9883C105.494 99.0182 107.238 100.014 108.846 100.872C110.077 102.486 111.719 104.992 112.985 108.253C113.43 109.386 113.806 110.484 114.148 111.549C114.627 112.99 115.106 114.398 115.687 115.737C114.353 115.154 112.917 114.673 111.48 114.226C110.385 113.883 109.291 113.506 108.162 113.094C103.817 111.446 101.355 109.489 99.8494 108.253C99.2337 106.742 98.5155 105.198 97.5918 103.481C98.7547 104.168 99.7469 104.476 100.534 104.579C101.799 104.751 102.962 104.442 103.749 103.721L103.817 103.652C104.262 103.207 104.912 102.211 104.707 100.529Z" fill="#6D3092"/>
<path d="M84.388 154.462C84.2853 154.187 84.1826 153.878 84.0801 153.57C83.0883 150.789 81.7882 147.837 80.1121 145.193C75.4942 137.915 70.9789 130.088 70.8762 121.402C72.3814 120.201 73.6813 118.724 74.8442 117.077C74.7074 120.75 75.2889 124.423 76.5888 128.131C77.91 131.905 79.5666 134.534 81.0271 136.852L81.0698 136.919C82.9171 139.838 84.388 142.172 84.388 145.674V154.462Z" fill="#6D3092"/>
<path d="M90.7847 145.193C89.1085 147.837 87.7744 150.789 86.8165 153.57C86.7138 153.879 86.6113 154.153 86.5085 154.462V145.674C86.5085 142.161 87.9603 139.868 89.7903 136.977L89.8264 136.919L89.8695 136.852C91.33 134.534 92.9864 131.905 94.3078 128.131C95.6077 124.423 96.1891 120.75 96.0522 117.077C97.2153 118.724 98.5152 120.201 100.02 121.402C99.9178 130.088 95.4026 137.915 90.7847 145.193Z" fill="#FFCB2B"/>
</g>
<defs>
<clipPath id="clip0_230_6382">
<rect width="171" height="171" fill="white"/>
</clipPath>
</defs>
</svg>
