<svg width="60" height="60" viewBox="0 0 60 60" fill="none" xmlns="http://www.w3.org/2000/svg">
<rect width="60" height="60" fill="#FFCA29"/>
<path d="M19.3523 14.7293L44.227 28.7231C44.4536 28.8508 44.6422 29.0364 44.7734 29.2609C44.9046 29.4855 44.9738 29.7409 44.9738 30.0009C44.9738 30.261 44.9046 30.5164 44.7734 30.741C44.6422 30.9655 44.4536 31.1511 44.227 31.2788L19.3523 45.2726C19.1291 45.3981 18.8768 45.463 18.6207 45.4607C18.3646 45.4584 18.1136 45.3891 17.8925 45.2597C17.6715 45.1303 17.4882 44.9453 17.361 44.723C17.2337 44.5008 17.1668 44.2491 17.167 43.9929V16.0089C17.1671 15.753 17.2342 15.5015 17.3616 15.2795C17.4891 15.0575 17.6724 14.8727 17.8933 14.7435C18.1143 14.6143 18.3652 14.5452 18.6212 14.543C18.8771 14.5408 19.1292 14.6039 19.3523 14.7293Z" fill="black"/>
</svg>
